<svg width="35" height="30" viewBox="0 0 35 30" fill="none" xmlns="http://www.w3.org/2000/svg">
<path d="M12.2096 13.2523C12.3315 12.2237 12.4814 11.2716 12.5377 10.3132C12.558 9.97454 12.433 9.55935 12.2284 9.29089C11.7253 8.63066 11.1317 8.04222 10.5865 7.41477C9.49453 6.15985 9.98193 4.70515 11.5957 4.37738C11.7488 4.34616 11.9003 4.28529 12.0534 4.28685C13.9718 4.30558 15.0903 3.29572 15.6527 1.53822C15.7308 1.29473 15.8792 1.07153 16.0198 0.853011C16.754 -0.286399 18.2818 -0.289521 18.9848 0.874863C19.4269 1.6069 19.805 2.37951 20.1768 3.15056C20.397 3.60633 20.672 3.87479 21.2125 3.94191C21.9826 4.03556 22.7434 4.22598 23.5042 4.39455C24.9758 4.72232 25.4694 6.16454 24.4962 7.31799C23.926 7.99384 23.2933 8.61505 22.7465 9.30806C22.5513 9.55623 22.4294 9.948 22.4497 10.2617C22.506 11.167 22.6559 12.0661 22.7637 12.9682C22.8481 13.669 22.6341 14.2575 22.0545 14.6758C21.4968 15.0785 20.8954 15.0925 20.2845 14.7928C19.6315 14.4729 18.9598 14.1841 18.3396 13.8095C17.7382 13.4458 17.2273 13.4583 16.6275 13.8282C15.9901 14.2216 15.298 14.5384 14.6076 14.8334C13.3984 15.3516 12.1706 14.4869 12.2096 13.2523Z" fill="#CE9F2D"/>
<path d="M2.21116 28.2488C2.33301 27.2214 2.48297 26.2689 2.5392 25.3101C2.55951 24.9712 2.43611 24.5543 2.22991 24.2873C1.70816 23.6096 1.09112 23.0053 0.533448 22.3542C-0.481927 21.169 0.00857709 19.7199 1.52695 19.3889C1.70503 19.3498 1.88312 19.2843 2.0612 19.2858C3.98416 19.3092 5.09326 18.2849 5.65563 16.5313C5.71811 16.3361 5.83996 16.1597 5.94462 15.9801C6.71474 14.6622 8.31279 14.6731 9.06729 16.0145C9.475 16.739 9.79836 17.5119 10.2436 18.2099C10.4373 18.5129 10.8044 18.7924 11.1496 18.8954C11.9181 19.125 12.7242 19.2202 13.5099 19.3982C14.9861 19.734 15.4626 21.1596 14.4972 22.3261C14.4144 22.426 14.3379 22.5384 14.2363 22.6149C12.468 23.9235 12.1431 25.6552 12.707 27.6742C12.9288 28.4675 12.7476 29.1795 12.0556 29.687C11.3777 30.1835 10.6997 30.0211 10.003 29.6714C9.15164 29.2435 8.26905 28.5455 7.40988 28.5596C6.54135 28.5736 5.68999 29.3278 4.82146 29.737C3.4796 30.3709 2.16898 29.5792 2.21272 28.2488H2.21116Z" fill="black"/>
<path d="M22.2119 28.2515C22.3352 27.2166 22.4851 26.2629 22.5412 25.3045C22.5615 24.9653 22.4351 24.5494 22.2291 24.2805C21.7077 23.602 21.0912 22.9969 20.5339 22.345C19.5209 21.1568 20.0016 19.5309 21.5345 19.4199C23.7525 19.2588 25.1683 18.3067 25.8488 16.1758C26.0861 15.4316 26.6917 14.9923 27.519 15.0001C28.3478 15.0079 28.9363 15.4723 29.1689 16.2102C29.8229 18.2833 31.1918 19.2182 33.349 19.4042C35.0442 19.5512 35.5109 21.1396 34.3886 22.4372C34.3371 22.4966 34.2934 22.5654 34.2325 22.6108C32.4593 23.9162 32.1409 25.6532 32.7028 27.6746C32.9229 28.4688 32.7418 29.1818 32.0503 29.6883C31.3713 30.1855 30.6939 30.0182 29.9993 29.6711C29.1486 29.2459 28.2651 28.5486 27.4066 28.5642C26.5372 28.5799 25.6881 29.3334 24.8202 29.7446C23.4794 30.3778 22.1713 29.5804 22.2166 28.2531L22.2119 28.2515Z" fill="black"/>
</svg>
