<svg width="24" height="22" viewBox="0 0 24 22" fill="none" xmlns="http://www.w3.org/2000/svg">
<path d="M7.44584 11.0055C5.04267 7.83792 2.66585 4.70564 0.290901 1.5715C0.178973 1.42371 0.013432 1.26385 0.00496687 1.10305C-0.00820114 0.82979 -0.00632 0.470088 0.155458 0.296279C0.332286 0.104811 0.689704 0.0471841 0.980341 0.00256999C1.12613 -0.0197371 1.29919 0.108528 1.45533 0.180097C8.70056 3.48247 15.9439 6.7867 23.1891 10.0872C23.6021 10.275 23.9933 10.4785 23.9999 10.9999C24.0065 11.5232 23.6256 11.7398 23.208 11.9248C22.5373 12.2231 21.8723 12.5317 21.2045 12.8366C14.628 15.835 8.05062 18.8334 1.4732 21.8309C1.33117 21.896 1.17692 22.0159 1.04336 21.9982C0.739554 21.9583 0.345454 21.9341 0.17427 21.7417C0.00214515 21.5484 0.0209566 21.1571 0.0284812 20.855C0.0322435 20.7119 0.198725 20.5687 0.301247 20.433C2.5558 17.4606 4.81129 14.4891 7.06585 11.5177C7.18718 11.3578 7.30475 11.1951 7.4449 11.0046L7.44584 11.0055Z" fill="#A26D27"/>
</svg>
