<svg width="43" height="45" viewBox="0 0 43 45" fill="none" xmlns="http://www.w3.org/2000/svg">
<g clip-path="url(#clip0_81_853)">
<path d="M22.526 26.5651C16.2608 26.5651 11.2602 21.5453 11.2794 15.2763C11.2985 9.07058 16.328 4.05268 22.5202 4.06227C28.7643 4.07186 33.7918 9.11856 33.7822 15.3665C33.7726 21.553 28.7336 26.5671 22.526 26.5651ZM21.5051 10.1106C21.2845 10.2104 21.1386 10.2737 20.9928 10.3409C19.8434 10.8628 19.0163 11.6419 18.9722 12.9947C18.9261 14.3763 19.7685 15.1631 20.8949 15.708C21.6107 16.0554 22.3955 16.2684 23.0921 16.6464C23.4624 16.8479 23.7157 17.2681 24.0208 17.5905C23.6083 17.8879 23.1938 18.429 22.7831 18.4271C22.0616 18.4252 21.3133 18.1566 20.6301 17.8726C20.018 17.6173 19.4845 17.5406 19.118 18.1354C18.7611 18.713 18.9645 19.2522 19.5344 19.6111C19.8837 19.8317 20.2425 20.0716 20.632 20.1829C21.2614 20.3633 21.603 20.6281 21.5243 21.3649C21.4572 21.9905 21.8486 22.4223 22.4799 22.451C23.1842 22.4837 23.5814 22.002 23.5315 21.3592C23.472 20.6012 23.8558 20.3479 24.4391 20.0352C26.5921 18.8838 26.6746 16.3566 24.6214 15.1266C24.159 14.8503 23.6447 14.6622 23.1496 14.4416C22.597 14.194 22.0117 14.006 21.4936 13.7009C20.8297 13.3113 20.8412 12.7683 21.5032 12.3768C21.7911 12.2061 22.1844 12.0468 22.4895 12.1024C23.1611 12.2291 23.8289 12.4421 24.4545 12.7184C25.0762 12.9947 25.5809 12.9851 25.9455 12.3864C26.2947 11.8108 26.0491 11.3368 25.5463 10.9914C25.2336 10.7746 24.9016 10.5405 24.5447 10.4426C23.8539 10.2526 23.4624 9.97055 23.5161 9.1435C23.5564 8.53329 23.0614 8.05165 22.4627 8.20708C22.0846 8.30495 21.7661 8.81729 21.5301 9.21066C21.4034 9.41982 21.5071 9.76906 21.5071 10.1106H21.5051Z" fill="#CE9F2D"/>
<path d="M7.53704 42.0564V33.0242C10.1199 32.1952 12.7085 31.2953 15.3431 30.5623C16.126 30.3454 17.0893 30.426 17.8818 30.664C20.8772 31.562 23.8342 32.5848 26.8104 33.55C27.5338 33.7841 28.0731 34.2772 27.9272 34.9987C27.8274 35.49 27.3285 35.9889 26.8776 36.2902C26.6013 36.4744 26.0716 36.3381 25.6668 36.2691C24.1566 36.0119 22.6503 35.7222 21.142 35.4458C21.0173 35.4228 20.8925 35.3864 20.7659 35.3691C20.0962 35.2808 19.6031 35.5245 19.4898 36.2115C19.3824 36.8582 19.77 37.2554 20.3744 37.3705C22.2876 37.7332 24.2046 38.0843 26.1273 38.3933C26.5552 38.4623 27.0829 38.4777 27.4437 38.2877C29.3721 37.2746 31.5175 37.3168 33.5764 36.9618C36.0307 36.5377 38.5042 36.2249 40.9719 35.8776C42.0292 35.7298 42.72 36.1194 42.9406 36.9407C43.1632 37.7658 42.6874 38.495 41.6396 38.8461C35.8004 40.8034 29.9612 42.7568 24.1144 44.693C22.6253 45.1862 21.1554 45.0845 19.7393 44.3706C18.3423 43.6664 16.9089 43.0274 15.5503 42.2541C13.9308 41.3311 12.271 41.1123 10.473 41.5441C9.54612 41.7667 8.59051 41.8741 7.5332 42.0526L7.53704 42.0564Z" fill="black"/>
<path d="M5.4631 37.4588C5.4631 39.3124 5.47653 41.1641 5.45734 43.0178C5.44583 44.1116 5.1081 44.4435 4.01241 44.4704C3.11821 44.4915 2.22401 44.4858 1.3298 44.4685C0.435595 44.4493 -0.00191261 43.9945 6.28441e-06 43.0811C0.00960076 39.3105 -0.00383151 35.5418 0.00960076 31.7712C0.0134385 30.8328 0.404893 30.4452 1.3605 30.4126C2.22209 30.3838 3.08559 30.3934 3.94717 30.4087C5.08508 30.4279 5.44775 30.7772 5.45734 31.8997C5.47461 33.7534 5.46118 35.6051 5.46118 37.4588H5.4631Z" fill="black"/>
<path d="M40.2101 26.0471C40.5651 25.6365 40.851 25.0973 41.2962 24.8555C41.6531 24.6617 42.3727 24.6502 42.6222 24.8862C42.8639 25.1126 42.9196 25.9377 42.7008 26.191C41.7203 27.3232 40.6476 28.3843 39.5212 29.3706C39.2737 29.5875 38.5061 29.574 38.2509 29.3514C37.1456 28.3862 36.096 27.3462 35.1366 26.239C34.9063 25.9742 34.9274 25.2354 35.1366 24.9034C35.4704 24.37 36.0998 24.4314 36.5527 24.8574C36.9192 25.2009 37.1917 25.6461 37.5045 26.0452C37.6023 25.9876 37.6983 25.9301 37.7961 25.8725C37.8153 25.577 37.848 25.2815 37.8499 24.986C37.8537 22.43 37.8518 19.8721 37.8518 17.3161C37.8518 17.1242 37.8518 16.9324 37.8518 16.7405C37.8556 15.9998 38.0303 15.3474 38.936 15.3742C39.7764 15.3992 39.928 16.0151 39.9261 16.7251C39.9184 19.473 39.9223 22.2228 39.9223 24.9706C39.9223 25.2815 39.9223 25.5904 39.9223 25.9013C40.0182 25.9492 40.1142 25.9972 40.2082 26.0471H40.2101Z" fill="#CE9F2D"/>
<path d="M39.9186 8.09579C39.9186 7.13826 39.9128 6.18074 39.9186 5.22321C39.9224 4.55351 40.2333 4.0949 40.9298 4.07955C41.6417 4.06228 41.966 4.54968 41.9737 5.19634C41.9967 7.17472 41.9967 9.15502 41.9737 11.1334C41.966 11.7935 41.5995 12.2598 40.9087 12.231C40.2275 12.2041 39.9147 11.7417 39.9167 11.0643C39.9205 10.0742 39.9167 9.08594 39.9167 8.09579H39.9186Z" fill="black"/>
<path d="M6.14461 6.10592C6.14461 5.15031 6.15036 4.1947 6.14461 3.23909C6.13885 2.51759 6.4689 2.03403 7.19616 2.03786C7.87929 2.04362 8.20358 2.53678 8.20742 3.19496C8.21893 5.1388 8.22277 7.08264 8.20742 9.02456C8.20166 9.67315 7.8908 10.1759 7.19424 10.1759C6.4593 10.1759 6.14269 9.68658 6.14461 8.97083C6.14844 8.01522 6.14461 7.05961 6.14461 6.104V6.10592Z" fill="#CE9F2D"/>
<path d="M37.8595 4.06231C37.8595 5.01792 37.8595 5.97353 37.8595 6.92914C37.8595 7.62954 37.6024 8.13229 36.8233 8.12077C36.098 8.10926 35.8427 7.63146 35.8408 6.97136C35.8408 5.02944 35.8408 3.08559 35.8408 1.14367C35.8408 0.479736 36.1056 0.00768752 36.8271 1.19416e-05C37.6062 -0.00958253 37.8614 0.497006 37.8595 1.1974C37.8576 2.15301 37.8595 3.10862 37.8595 4.06423V4.06231Z" fill="black"/>
<path d="M2.06839 12.2157C2.06839 11.2563 2.07223 10.2968 2.06839 9.33736C2.06456 8.65615 2.37542 8.18986 3.0643 8.18026C3.74935 8.17067 4.08707 8.62161 4.08707 9.30666C4.08707 11.2563 4.08707 13.2078 4.08707 15.1574C4.08707 15.829 3.79156 16.3049 3.09308 16.3145C2.39653 16.3241 2.07415 15.8635 2.07223 15.1881C2.06648 14.196 2.07223 13.2059 2.07223 12.2138L2.06839 12.2157Z" fill="#CE9F2D"/>
</g>
<defs>
<clipPath id="clip0_81_853">
<rect width="42.9967" height="45" fill="white"/>
</clipPath>
</defs>
</svg>
