<svg width="31" height="30" viewBox="0 0 31 30" fill="none" xmlns="http://www.w3.org/2000/svg">
<path d="M7.7113 20.6113C6.85319 20.1748 6.10732 19.6417 5.47 18.9627C3.38269 16.7393 2.94482 13.3903 4.38738 10.6449C5.79005 7.97476 8.8468 6.42189 11.7959 6.90205C12.1234 6.95499 12.2245 6.84447 12.3145 6.56306C12.7969 5.06128 13.6328 3.77868 14.759 2.67905C14.9807 2.46265 15.1421 2.24904 15.4427 2.61589C15.6728 2.89637 15.8759 3.04497 15.4946 3.4044C13.797 5.00834 12.9296 7.01536 12.8294 9.33908C12.6847 12.7002 14.6875 15.9815 17.7564 17.3597C20.8678 18.7575 23.8253 18.4157 26.6038 16.4412C26.7373 16.3465 26.8681 16.0836 27.0537 16.2359C27.2615 16.4068 27.4211 16.6548 27.55 16.8963C27.6122 17.0133 27.4275 17.0885 27.3339 17.1573C24.1992 19.4578 20.8474 19.8543 17.2907 18.2643C16.9122 18.0953 16.7275 18.0981 16.4761 18.4491C15.7999 19.3918 14.8898 20.0745 13.7274 20.6577C14.8202 20.6967 15.7627 20.7784 16.6802 21.0394C18.5653 21.5753 20.122 22.6099 21.3808 24.1061C21.4885 24.2334 21.5321 24.3643 21.5311 24.5269C21.5284 26.2293 21.5172 27.9316 21.5386 29.6331C21.5432 30.0362 21.3178 29.9925 21.0664 29.9925C17.2795 29.9916 13.4927 29.9925 9.70584 29.9925C6.64538 29.9925 3.58493 29.986 0.524471 30C0.144117 30.0018 -0.00802465 29.9433 0.000324583 29.5049C0.0309384 27.8963 0.0179507 26.2868 0.00774612 24.6773C0.00589074 24.395 0.0866 24.1851 0.273066 23.9724C2.11546 21.8641 4.44583 20.7989 7.22705 20.6809C7.37177 20.6744 7.52669 20.7227 7.71501 20.6103L7.7113 20.6113Z" fill="white"/>
<path d="M21.4393 13.342C20.8215 13.342 20.2036 13.3262 19.5876 13.3494C19.3019 13.3596 19.1525 13.2705 19.1284 12.9872C19.0811 12.4216 18.8065 11.9563 18.4521 11.5421C17.3908 10.3013 17.543 8.29889 18.4549 7.10731C19.4652 5.78756 21.1953 5.29532 22.7696 5.90458C24.2938 6.49433 25.2196 8.03048 25.0861 9.69758C25.0322 10.3681 24.8189 10.9607 24.3958 11.4789C24.0183 11.9405 23.7298 12.4457 23.6611 13.0504C23.6342 13.2853 23.5164 13.3513 23.291 13.3475C22.6741 13.3355 22.0562 13.3429 21.4384 13.3429L21.4393 13.342Z" fill="white"/>
<path d="M30.9973 9.46354C30.989 11.6387 30.3934 13.4748 29.2542 15.1456C29.0798 15.4019 28.9369 15.492 28.6976 15.2505C28.5065 15.0574 28.063 15.0369 28.4081 14.5484C31.0966 10.7341 30.2542 5.5368 26.6288 2.81372C23.8569 0.732397 20.8354 0.463989 17.6654 1.86918C17.5263 1.93141 17.3565 2.1413 17.2174 1.95463C17.0569 1.7373 16.9511 1.46889 16.8667 1.20791C16.8296 1.09275 17.0059 1.06675 17.0977 1.02031C22.8698 -1.87645 29.8674 1.68529 30.8776 8.0407C30.9602 8.55894 31.0149 9.08461 30.9964 9.46261L30.9973 9.46354Z" fill="white"/>
<path d="M21.3465 14.9366C20.7602 14.9366 20.1739 14.9162 19.5885 14.9431C19.172 14.9626 19.236 14.6914 19.2527 14.4574C19.2685 14.2326 19.1052 13.9029 19.5737 13.9085C20.7918 13.9224 22.0098 13.9243 23.2279 13.9085C23.7316 13.902 23.5303 14.2577 23.5628 14.4899C23.6008 14.7592 23.5767 14.9636 23.1963 14.9459C22.5813 14.9162 21.9634 14.9376 21.3465 14.9376V14.9366Z" fill="white"/>
<path d="M21.3808 16.548C21.1962 16.548 21.0098 16.5276 20.8289 16.5517C20.4123 16.6065 20.2825 16.4551 20.2834 16.0251C20.2834 15.61 20.4086 15.4874 20.8066 15.519C21.2185 15.5515 21.6387 15.5589 22.0488 15.5171C22.4922 15.4725 22.533 15.6778 22.546 16.0483C22.5599 16.4644 22.4264 16.6037 22.0256 16.5527C21.8141 16.5257 21.5961 16.548 21.3818 16.548H21.3808Z" fill="white"/>
<path d="M18.3102 5.78663C18.0959 5.99467 17.9085 6.22964 17.6719 6.38846C17.5096 6.49805 17.4233 6.26215 17.3222 6.16742C17.0077 5.87208 16.7146 5.55444 16.4001 5.26003C16.2275 5.09843 16.2062 4.97398 16.4029 4.81795C16.5346 4.71393 16.6459 4.58205 16.7647 4.46131C16.8463 4.37772 16.9159 4.31828 17.029 4.43345C17.4168 4.83002 17.8129 5.21824 18.2026 5.61203C18.2434 5.65289 18.2666 5.71233 18.3111 5.7857L18.3102 5.78663Z" fill="white"/>
<path d="M21.9133 3.64494C21.9133 3.78333 21.9133 3.92171 21.9133 4.06009C21.9133 4.71764 21.7566 4.83374 21.0979 4.70836C20.9022 4.67121 20.8966 4.55697 20.8957 4.41394C20.8957 3.9375 20.904 3.46105 20.892 2.98461C20.8864 2.75242 20.9606 2.66512 21.2055 2.6549C21.9133 2.62518 21.9133 2.61311 21.9133 3.64494Z" fill="white"/>
<path d="M27.2392 10.0459C27.0852 10.0459 26.9275 10.0264 26.7772 10.0505C26.3357 10.1211 26.2475 9.91955 26.2494 9.51276C26.2512 9.13012 26.3533 8.99452 26.7401 9.0261C27.1539 9.0586 27.5723 9.03724 27.9879 9.03353C28.423 9.03074 28.2597 9.36044 28.2727 9.56941C28.2857 9.77745 28.3738 10.0672 27.9786 10.0477C27.7328 10.0356 27.4851 10.0459 27.2392 10.0459Z" fill="white"/>
<path d="M26.6845 4.9489C26.5333 5.11886 26.4757 5.19038 26.4108 5.25539C26.1065 5.56187 25.7902 5.85721 25.4989 6.17577C25.3347 6.35595 25.2159 6.36617 25.0656 6.17577C24.9896 6.07919 24.9014 5.98817 24.8031 5.91573C24.5628 5.73834 24.5999 5.59345 24.8059 5.4077C25.1037 5.1393 25.3903 4.85696 25.6557 4.55604C25.8477 4.33779 25.9757 4.35172 26.165 4.55883C26.3078 4.71486 26.5054 4.81981 26.6835 4.95076L26.6845 4.9489Z" fill="white"/>
<path d="M15.4492 10.0542C15.3573 10.0542 15.2646 10.0542 15.1727 10.0542C14.5567 10.0542 14.3972 9.82946 14.5456 9.21277C14.5864 9.04374 14.6885 9.03631 14.8146 9.03538C15.1375 9.03353 15.4594 9.03353 15.7822 9.03353C16.4761 9.03353 16.516 9.08832 16.4353 9.80346C16.4158 9.97527 16.3592 10.0551 16.1867 10.0524C15.9409 10.0486 15.695 10.0524 15.4501 10.0524C15.4501 10.0524 15.4501 10.0542 15.4501 10.0551L15.4492 10.0542Z" fill="white"/>
</svg>
