<svg width="47" height="47" viewBox="0 0 47 47" fill="none" xmlns="http://www.w3.org/2000/svg">
<path d="M26.0826 46.998H25.1838C19.0088 46.998 12.8317 47.002 6.65669 46.998C2.50042 46.9918 0.00665413 44.5192 0.0046067 40.3886C-0.00153557 29.1307 -0.00153557 17.8749 0.0046067 6.61707C0.00665413 2.48851 2.50246 0.0199668 6.65873 0.0117793C9.14021 0.00768555 11.6217 0.0117793 14.2444 0.0117793C14.2444 0.488703 14.2444 0.851001 14.2444 1.2133C14.2444 4.18128 14.2342 7.14926 14.2485 10.1172C14.2608 12.6513 15.7882 14.211 18.3188 14.2315C21.7646 14.2601 25.2104 14.2581 28.6583 14.2315C31.2442 14.213 32.7511 12.6595 32.7613 10.0476C32.7736 7.11446 32.7634 4.18128 32.7634 1.24605C32.7634 0.879657 32.7634 0.515312 32.7634 0.0117793C34.1638 0.0117793 35.4476 0.00359179 36.7333 0.0138262C38.3692 0.0281544 40.0195 -0.0680491 41.641 0.105936C44.6855 0.43139 46.9029 2.67477 46.9479 5.76556C47.0585 13.0914 46.9827 20.4192 46.8169 27.8453C46.6285 27.5587 46.4443 27.2722 46.2539 26.9876C43.7519 23.2193 40.2713 21.0189 35.7751 20.4212C34.0451 20.192 32.5975 20.6198 31.5677 22.0894C28.7607 20.6628 25.7981 21.3382 22.9173 21.3751C21.4637 21.3935 20.4195 22.419 19.924 23.8232C19.4162 25.2642 19.7459 26.5578 20.7204 27.7327C20.9231 27.9783 21.0931 28.4798 20.9784 28.7275C18.0056 35.2632 20.3314 42.7793 25.9332 46.6111C26.0171 46.6684 26.1093 46.7114 26.1973 46.7605C26.1604 46.8403 26.1215 46.9202 26.0847 47L26.0826 46.998Z" fill="#CE9F2D"/>
<path d="M17.0019 0H27.9863C27.9863 0.791582 27.9863 1.53369 27.9863 2.27374C27.9863 4.77835 27.9601 7.2809 27.9995 9.78552C28.0126 10.6596 27.7818 11.0121 26.9429 10.9997C23.9777 10.9585 21.0106 10.9853 18.0435 10.9832C17.5367 10.9832 16.9981 11.0368 17 10.1999C17.0038 6.84182 17 3.48378 17 0H17.0019Z" fill="black"/>
<path d="M23.7164 27.2127C23.1894 27.2127 22.8388 27.2427 22.4939 27.2066C21.601 27.1145 20.984 26.4214 21.0013 25.564C21.0185 24.6926 21.6393 24.0315 22.5552 24.0175C24.2452 23.9894 25.9371 23.9994 27.629 24.0175C28.541 24.0275 29.112 24.5904 29.1484 25.4879C29.2232 27.3188 29.2136 29.1578 29.1599 30.9908C29.1312 31.9503 28.4337 32.5433 27.5849 32.5152C26.7399 32.4872 26.1709 31.8582 26.121 30.8786C26.1019 30.482 26.1172 30.0853 26.1172 29.6887C26.0195 29.6025 25.9218 29.5164 25.824 29.4323C25.7244 29.6586 25.6516 29.903 25.5194 30.1053C22.013 35.4059 25.2013 42.8921 31.3136 43.6994C31.693 43.7495 32.0743 43.7795 32.4556 43.8196C33.383 43.9177 33.9942 44.5427 34 45.3981C34.0057 46.2735 33.3044 47.0728 32.379 46.9947C31.1814 46.8945 29.9475 46.7563 28.815 46.3637C21.5263 43.8376 18.6866 34.6968 23.1032 28.1241C23.2661 27.8837 23.4289 27.6434 23.7183 27.2147L23.7164 27.2127Z" fill="black"/>
<path d="M44.2027 41.7417C44.7179 41.7657 45.0965 41.7557 45.4668 41.8037C46.3627 41.9238 47.0102 42.6204 46.9999 43.423C46.9895 44.2857 46.3047 44.9642 45.3241 44.9782C43.4993 45.0062 41.6725 45.0083 39.8477 44.9782C38.8112 44.9622 38.1926 44.3517 38.174 43.3309C38.1429 41.5976 38.1429 39.8642 38.174 38.1328C38.1926 37.116 38.8939 36.4775 39.8601 36.4975C40.7746 36.5155 41.4201 37.146 41.4739 38.1068C41.4987 38.5632 41.478 39.0215 41.5711 39.4839C43.1166 37.2521 43.4538 34.8182 42.5993 32.3082C41.387 28.7454 38.7408 26.7458 34.9175 26.1994C33.5562 26.0052 32.8507 25.3147 33.0265 24.3319C33.2045 23.3431 34.1106 22.8527 35.4285 23.0389C44.542 24.3219 49.1391 33.4791 44.5338 41.1752C44.4489 41.3153 44.3682 41.4574 44.2027 41.7417Z" fill="black"/>
</svg>
