<svg width="27" height="30" viewBox="0 0 27 30" fill="none" xmlns="http://www.w3.org/2000/svg">
<path d="M16.1558 12.4071C15.9195 12.4609 15.7599 12.3683 15.5958 12.3225C14.0209 11.8807 12.4769 13.0853 12.5351 14.7184C12.5386 14.8065 12.5492 14.8938 12.5571 14.982C12.6162 15.6884 12.5924 15.728 11.9487 16.0137C10.9699 16.4485 10.4134 17.3047 10.4522 18.3408C10.4769 19.0031 10.7485 19.556 11.2282 20.0127C11.7732 20.5312 11.775 20.5604 11.4522 21.2155C11.2476 21.6309 11.1101 22.0682 11.1762 22.5321C11.2168 22.8178 11.1286 22.8786 10.8605 22.8751C9.96459 22.861 9.06867 22.8698 8.17275 22.8698C5.70455 22.8698 3.23724 22.8698 0.769047 22.8698C0.140314 22.8698 0.0344967 22.7763 0.0450784 22.1635C0.0759419 20.4898 -0.127757 18.8011 0.141196 17.1469C0.633247 14.1231 2.39599 12.0571 5.20897 10.8746C5.38534 10.8005 5.52907 10.8358 5.6975 10.9416C8.19215 12.5165 10.693 12.5112 13.1911 10.9425C13.3023 10.8728 13.3975 10.7846 13.55 10.8402C14.5086 11.1902 15.3736 11.6911 16.1558 12.4071Z" fill="white"/>
<path d="M14.9766 13.1451C15.1451 13.1363 15.3294 13.1821 15.5128 13.2394C16.4219 13.526 16.9863 13.3329 17.5083 12.5296C17.8055 12.071 18.175 11.7598 18.7455 11.7307C19.3416 11.6998 19.794 11.9299 20.1282 12.4229C20.7702 13.3708 21.2067 13.5269 22.2816 13.2147C23.4227 12.8832 24.3944 13.7306 24.2304 14.914C24.0972 15.8769 24.3962 16.4131 25.2824 16.8002C26.4958 17.3301 26.7065 18.5312 25.7453 19.4456C25.0496 20.1078 24.9561 20.6669 25.3935 21.5355C25.9746 22.6889 25.3468 23.7771 24.0664 23.8352C23.1149 23.8785 22.6317 24.2885 22.4218 25.2312C22.1484 26.456 20.9615 26.8978 19.9492 26.15C19.1273 25.5424 18.6044 25.5424 17.7597 26.1482C16.7218 26.8925 15.5974 26.478 15.2835 25.2356C15.0287 24.2285 14.6063 23.8864 13.5525 23.8335C12.4176 23.7762 11.766 22.6827 12.2536 21.6537C12.7607 20.5849 12.691 20.1819 11.8559 19.3539C11.0341 18.5391 11.2492 17.3231 12.2995 16.8513C13.3479 16.3804 13.5419 16.0489 13.4599 14.8699C13.3894 13.8655 14.0199 13.1354 14.9766 13.1451ZM18.8699 23.0478C21.0523 23.0407 22.8019 21.2745 22.793 19.0876C22.7842 16.921 20.9941 15.16 18.8152 15.1741C16.6627 15.1882 14.9114 16.9589 14.9149 19.1202C14.9176 21.3036 16.6812 23.0548 18.8699 23.0478Z" fill="white"/>
<path d="M9.45839 5.82517e-06C12.58 0.00441487 15.1258 2.53256 15.1117 5.61537C15.0976 8.69994 12.5447 11.2078 9.42223 11.2025C6.31208 11.1981 3.76188 8.66114 3.76981 5.57833C3.77775 2.49464 6.32619 -0.00440322 9.45839 5.82517e-06Z" fill="white"/>
<path d="M21.5568 29.9975C21.1961 29.1448 20.8822 28.3926 20.5577 27.6448C20.4748 27.4535 20.5348 27.4138 20.7173 27.4235C22.0506 27.4976 23.1308 26.6457 23.346 25.2833C23.3724 25.1184 23.4465 24.9782 23.5832 24.8759C23.7296 24.7657 23.8468 24.764 23.9271 24.9544C24.3918 26.0593 24.8583 27.1634 25.3689 28.3741C24.7419 28.1686 24.2049 28.0002 23.6731 27.8159C22.7666 27.502 22.7693 27.4984 22.3592 28.352C22.1123 28.8661 21.8601 29.3767 21.5568 29.9975Z" fill="white"/>
<path d="M12.334 28.3784C12.8393 27.1826 13.297 26.105 13.7494 25.0248C13.8878 24.695 14.065 24.7691 14.2229 24.986C14.3146 25.1113 14.3649 25.2753 14.4037 25.4287C14.7432 26.7885 15.6373 27.4622 17.0535 27.4189C17.0958 27.4181 17.1382 27.4278 17.2325 27.4392C16.878 28.2761 16.5324 29.0926 16.1488 30C15.7934 29.261 15.4565 28.6059 15.162 27.9322C15.0183 27.6032 14.8904 27.4983 14.5157 27.6491C13.8428 27.9207 13.1374 28.1147 12.334 28.3784Z" fill="white"/>
<path d="M20.3391 20.273C20.3391 20.6178 20.0931 21.0454 19.5966 21.3073C19.4123 21.4052 19.2924 21.4916 19.2853 21.7244C19.2774 21.9854 19.0913 22.1177 18.8418 22.1159C18.586 22.1142 18.4106 21.9475 18.4053 21.7077C18.4 21.4599 18.2889 21.3602 18.0931 21.2474C17.7148 21.0287 17.5261 20.6645 17.4538 20.2403C17.4018 19.9361 17.5129 19.6971 17.818 19.6354C18.1055 19.5763 18.2933 19.7421 18.34 20.0349C18.3859 20.325 18.5067 20.534 18.8303 20.5604C19.1583 20.5869 19.3991 20.4476 19.4317 20.1222C19.4643 19.7994 19.2668 19.5984 18.9326 19.5807C18.6971 19.5684 18.4599 19.5702 18.2412 19.4714C17.7183 19.2342 17.3965 18.833 17.3586 18.2554C17.3206 17.6787 17.5728 17.2263 18.0772 16.9424C18.2677 16.8357 18.3964 16.7519 18.4097 16.4979C18.422 16.2634 18.6107 16.0985 18.8673 16.1144C19.1151 16.1293 19.2915 16.2766 19.2871 16.5359C19.2827 16.7695 19.4079 16.863 19.5816 16.9697C19.9802 17.214 20.2103 17.5764 20.25 18.0482C20.2747 18.333 20.1742 18.5534 19.8735 18.5993C19.5763 18.6443 19.4088 18.4758 19.3506 18.1893C19.3365 18.1178 19.3303 18.0411 19.3003 17.9767C19.1795 17.7122 18.9599 17.6108 18.6874 17.669C18.4335 17.7237 18.2774 17.8894 18.2827 18.169C18.2889 18.4723 18.4582 18.6187 18.7501 18.646C18.9105 18.661 19.0728 18.6707 19.2306 18.7033C19.8894 18.8427 20.3267 19.3832 20.3364 20.273H20.3391Z" fill="white"/>
</svg>
