<svg width="30" height="30" viewBox="0 0 30 30" fill="none" xmlns="http://www.w3.org/2000/svg">
<path d="M6.01099 17.9316C6.64535 18.1202 6.96254 18.4996 6.96254 19.0697C6.96254 20.0721 6.96064 20.0835 7.93496 20.2515C9.35422 20.4955 10.7668 20.4157 12.1747 20.131C12.3863 20.0882 12.4204 19.9772 12.4195 19.8016C12.4166 19.3906 12.4309 18.9786 12.4157 18.5676C12.4071 18.3417 12.4973 18.2363 12.7012 18.149C13.8283 17.6677 13.8425 17.6459 14.6897 18.5439C15.0113 18.8846 15.2257 18.9178 15.6195 18.6359C16.8556 17.7503 17.903 16.6976 18.7559 15.4371C18.9428 15.1599 18.9228 14.9947 18.6819 14.8096C18.6325 14.7717 18.5917 14.7213 18.5472 14.6767C17.6772 13.8053 17.6829 13.8072 18.1658 12.6805C18.254 12.4745 18.3631 12.3901 18.587 12.3986C18.9655 12.4138 19.346 12.392 19.7245 12.4062C19.9844 12.4166 20.1011 12.3521 20.1609 12.0597C20.4873 10.4556 20.4863 8.85896 20.1533 7.25668C20.1049 7.02507 20.0319 6.91496 19.7919 6.94059C19.6979 6.95008 19.6021 6.94154 19.5072 6.94154C18.6351 6.94091 18.0589 6.53432 17.7787 5.72179C17.754 5.65155 17.7028 5.59175 17.7332 5.50157C17.8669 5.10954 18.8953 4.39953 19.2862 4.46597C22.7395 5.05164 25.2564 6.85421 26.5675 10.166C27.0599 11.4114 27.3331 12.7232 27.1566 14.0664C26.9754 15.4465 27.4991 16.6084 28.1348 17.7494C28.6812 18.729 29.258 19.6905 29.8215 20.6606C30.1451 21.2169 30.0379 21.5149 29.425 21.6639C28.8586 21.8016 28.2846 21.9183 27.7088 22.0123C27.4394 22.056 27.3397 22.1604 27.3274 22.4357C27.2866 23.3042 27.2126 24.1708 27.1623 25.0394C27.1102 25.9506 26.6681 26.3806 25.7564 26.3987C24.8712 26.4167 23.9861 26.4357 23.1019 26.4651C22.5042 26.485 22.2509 26.7404 22.2063 27.3355C22.1484 28.1082 22.0773 28.8799 22.0365 29.6535C22.0223 29.9193 21.9369 30.0009 21.6712 30C17.6402 29.9924 13.6082 29.9943 9.57716 29.9971C9.38078 29.9971 9.24322 29.9782 9.24701 29.7257C9.28496 26.7233 8.25088 23.999 7.07448 21.307C6.60772 20.2401 6.24057 19.1343 6.00909 17.9316H6.01099Z" fill="white"/>
<path d="M0.000948704 9.69048C0.0369994 9.2339 0.0806398 8.77828 0.106255 8.32076C0.118588 8.09389 0.187843 7.98378 0.441147 7.98093C0.926883 7.97429 1.53026 8.17932 1.8661 7.89645C2.17633 7.63542 2.20289 7.04026 2.36132 6.59507C2.41445 6.44699 2.48655 6.30556 2.55581 6.16318C2.82903 5.60314 2.73827 5.09625 2.28353 4.64253C1.91923 4.27929 1.90152 3.8996 2.2304 3.50346C2.71804 2.91874 3.26639 2.39762 3.86881 1.9325C4.0614 1.78348 4.19232 1.7588 4.37637 1.96193C4.68375 2.29985 4.98733 2.78775 5.36682 2.87033C5.70455 2.94342 6.13622 2.53811 6.53847 2.37104C6.90182 2.22012 7.27276 2.07299 7.65414 1.98661C7.95583 1.91826 8.02414 1.77303 8.01085 1.49681C7.99283 1.13421 8.01465 0.769708 8.00421 0.406157C7.99757 0.185938 8.0877 0.109051 8.304 0.082473C9.23468 -0.0295349 10.1625 -0.0257381 11.0932 0.0834223C11.3256 0.11095 11.3797 0.219161 11.3769 0.422294C11.3702 0.801982 11.3835 1.18167 11.3731 1.56041C11.3664 1.77683 11.4148 1.90877 11.6558 1.96478C12.3986 2.13848 13.0997 2.4261 13.7467 2.82952C13.9573 2.96146 14.0759 2.91779 14.2268 2.75738C14.4971 2.46976 14.7893 2.20303 15.0588 1.91447C15.1954 1.76829 15.2922 1.76924 15.4525 1.88884C16.2181 2.46122 16.8812 3.13042 17.459 3.89074C17.5928 4.0673 17.5766 4.17361 17.4201 4.32454C17.0805 4.65297 16.571 4.96336 16.4894 5.35539C16.4164 5.70945 16.8366 6.15653 17.0093 6.57514C17.1602 6.93869 17.2901 7.31363 17.3888 7.69427C17.4495 7.92683 17.5586 7.99802 17.7834 7.98948C18.162 7.97619 18.5424 7.99612 18.9209 7.98283C19.16 7.97429 19.2539 8.06826 19.2815 8.30462C19.3868 9.22062 19.3858 10.1328 19.2805 11.0488C19.252 11.2956 19.1344 11.3621 18.9077 11.3611C18.4504 11.3592 17.9106 11.2282 17.5596 11.4266C17.2019 11.6288 17.2683 12.2496 17.0643 12.6558C16.9087 12.9662 16.7892 13.2985 16.6014 13.5861C16.4126 13.8756 16.4154 14.0749 16.6905 14.3008C16.9457 14.5106 17.1564 14.7736 17.4011 14.9976C17.569 15.1504 17.6051 15.269 17.4495 15.4684C16.8736 16.2088 16.2219 16.8685 15.4753 17.438C15.3054 17.5671 15.1963 17.5756 15.0407 17.4124C14.7144 17.0707 14.4004 16.5486 14.0133 16.4793C13.6357 16.4119 13.1794 16.8305 12.7477 17.009C12.3986 17.1532 12.039 17.2785 11.6738 17.3725C11.4423 17.4314 11.3655 17.5386 11.3731 17.7655C11.3854 18.1442 11.3674 18.5249 11.3788 18.9036C11.3854 19.1371 11.3 19.2406 11.059 19.2691C10.1435 19.3744 9.23184 19.3735 8.31634 19.2681C8.07157 19.2396 7.99757 19.1286 8.00421 18.8989C8.0156 18.5201 7.99567 18.1395 8.01085 17.7607C8.02034 17.5272 7.93116 17.4304 7.70442 17.3754C6.97961 17.2007 6.2918 16.9188 5.65807 16.5249C5.43417 16.3863 5.29756 16.4176 5.13913 16.6018C4.98449 16.7812 4.80803 16.9406 4.64011 17.1086C4.29605 17.4529 3.93997 17.4747 3.57187 17.1741C3.00644 16.7128 2.51596 16.1784 2.04446 15.6231C1.81297 15.3497 1.76459 15.1456 2.07861 14.897C2.33666 14.6929 2.54442 14.4252 2.79014 14.2031C2.96185 14.0483 2.97229 13.9231 2.84801 13.7218C2.4486 13.0726 2.1621 12.3711 1.98469 11.6288C1.93441 11.4162 1.82531 11.3526 1.62039 11.3583C1.22573 11.3687 0.830116 11.3535 0.435455 11.363C0.221048 11.3678 0.128075 11.2899 0.108152 11.0668C0.0692554 10.6103 0.00758963 10.1556 0 9.69333L0.000948704 9.69048ZM3.53582 9.64492C3.53487 13.0659 6.30603 15.85 9.70049 15.8376C13.0883 15.8253 15.849 13.0602 15.8538 9.67434C15.8576 6.27329 13.076 3.50821 9.65685 3.51295C6.29749 3.5177 3.53677 6.28373 3.53582 9.64492Z" fill="white"/>
<path d="M4.57939 9.63353C4.58793 6.83238 6.89613 4.54571 9.70429 4.55615C12.5162 4.56659 14.8036 6.85421 14.8102 9.66105C14.8169 12.4793 12.4916 14.8039 9.67773 14.7925C6.84964 14.7811 4.5699 12.4745 4.57844 9.63353H4.57939ZM10.948 8.06921C10.9547 7.81007 10.7896 7.6601 10.5885 7.55473C10.3542 7.43228 10.1824 7.30224 10.172 6.99469C10.1635 6.74315 9.95285 6.60931 9.71188 6.59887C9.46996 6.58843 9.24322 6.70898 9.22235 6.95578C9.19294 7.31268 8.95197 7.43988 8.70815 7.61548C8.24898 7.94391 8.04785 8.41093 8.11901 8.97761C8.1949 9.58796 8.56395 9.93063 9.14455 10.0721C9.38932 10.1319 9.63409 10.1945 9.8779 10.2629C10.0743 10.3179 10.2403 10.4185 10.2071 10.6549C10.1758 10.8761 9.99364 10.9558 9.79916 10.9947C9.61985 11.0308 9.44909 10.9881 9.30299 10.8827C9.00509 10.6691 8.71764 10.6824 8.52505 10.99C8.31918 11.3193 8.45674 11.6051 8.7831 11.7778C9.02027 11.9031 9.17491 12.0474 9.20622 12.3398C9.23468 12.6055 9.4377 12.7479 9.71188 12.7384C9.96234 12.7289 10.1616 12.5932 10.1711 12.3464C10.1824 12.0388 10.3655 11.924 10.5866 11.7835C11.1169 11.4475 11.3275 10.9567 11.2469 10.3246C11.1662 9.69048 10.7592 9.40381 10.1967 9.25763C9.95285 9.19404 9.70619 9.13708 9.46427 9.06494C9.28591 9.01179 9.13222 8.89978 9.16163 8.69665C9.18819 8.5125 9.33619 8.40239 9.52214 8.36347C9.7707 8.31031 9.97467 8.40524 10.1919 8.52294C10.5667 8.72702 10.9566 8.47738 10.9461 8.06826L10.948 8.06921Z" fill="white"/>
</svg>
