<svg width="43" height="30" viewBox="0 0 43 30" fill="none" xmlns="http://www.w3.org/2000/svg">
<path d="M15 15.8555C15.9271 17.1866 16.7173 18.3331 17.5177 19.4714C18.0851 20.2779 18.7589 20.4867 19.4242 20.0819C20.1165 19.6609 20.1841 18.9581 19.6032 18.108C19.0527 17.3016 18.4921 16.5016 17.874 15.6078C18.1476 15.5948 18.3013 15.5819 18.4549 15.5819C20.0979 15.5867 21.2935 14.8856 22.1023 13.5172C22.2374 13.2889 22.5633 13.0136 22.8031 13.012C29.4715 12.991 36.1398 13.0023 42.8082 13.0104C42.8335 13.0104 42.8572 13.0282 42.9619 13.0687C42.9737 13.2922 42.9973 13.5513 42.9973 13.8103C42.999 17.8829 43.0024 21.9571 42.9973 26.0296C42.9939 28.5088 41.4337 29.9969 38.8366 29.9986C31.155 30.0018 23.4735 29.9986 15.792 29.9986C15.5454 29.9986 15.2972 29.9986 15.0017 29.9986V15.8523L15 15.8555ZM31.4472 20.2795C33.0784 20.2795 34.7079 20.2843 36.3391 20.2779C37.3252 20.2746 37.9095 19.8261 37.923 19.086C37.9365 18.3412 37.3455 17.8602 36.3796 17.8586C33.1476 17.8521 29.9139 17.8538 26.6819 17.8586C25.6974 17.8586 25.1115 18.3104 25.0996 19.0488C25.0861 19.8147 25.689 20.2762 26.7275 20.2795C28.3013 20.2843 29.8767 20.2795 31.4505 20.2795H31.4472ZM31.5113 25.1374C33.1425 25.1374 34.7721 25.1439 36.4033 25.1342C37.3269 25.1293 37.896 24.6775 37.9213 23.9618C37.9483 23.2137 37.359 22.7165 36.3982 22.7149C33.1375 22.7084 29.8767 22.7084 26.616 22.7149C25.6873 22.7165 25.1233 23.1667 25.0979 23.8857C25.0726 24.6322 25.6636 25.1277 26.6211 25.1342C28.2523 25.1423 29.8818 25.1374 31.513 25.1358L31.5113 25.1374Z" fill="black"/>
<path d="M15 8.85571V0.000739208C15.2752 0.000739208 15.5706 0.000739208 15.8644 0.000739208C23.5174 0.000739208 31.1704 -0.000924009 38.8234 0.000739208C41.4622 0.000739208 42.9934 1.52591 42.9985 4.14714C43.0019 6.05485 42.9985 7.96422 42.9985 9.93513C42.7115 9.95509 42.4684 9.98503 42.227 9.98503C35.8402 9.98836 29.4534 9.98004 23.0666 10C22.5483 10 22.29 9.85364 22.0418 9.39126C20.9546 7.35382 18.4796 6.71681 16.4722 7.91765C15.9995 8.2004 15.5453 8.50809 15 8.85737V8.85571Z" fill="#CE9F2D"/>
<path d="M0.0929255 13.0032C1.77358 13.0032 3.42288 12.9935 5.07393 13.0162C5.24983 13.0194 5.50759 13.1715 5.58596 13.3187C6.47419 14.9851 7.93714 15.6954 10.0619 15.5821C9.56729 16.2859 9.13711 16.9007 8.70345 17.5139C8.49619 17.8067 8.26979 18.0882 8.08169 18.3908C7.67938 19.0411 7.84309 19.7271 8.46485 20.0879C9.05874 20.4325 9.77976 20.3193 10.2291 19.732C10.917 18.8324 11.5545 17.9005 12.2163 16.9832C12.4409 16.671 12.6726 16.3619 13 15.9154V29.9278C12.8798 29.9456 12.7161 29.9909 12.5541 29.9909C9.68223 29.9958 6.81032 30.0103 3.9384 29.9877C1.78751 29.9699 0.0406771 28.4572 0.0215194 26.506C-0.0202792 22.0876 0.0110698 17.6692 0.014553 13.2508C0.014553 13.2006 0.0441604 13.1521 0.0929255 13V13.0032Z" fill="black"/>
<path d="M0.0232617 9.98966C0.0232617 7.71574 -0.0410054 5.55659 0.0441051 3.40244C0.111846 1.67413 1.62299 0.118814 3.4381 0.0572672C6.60803 -0.0508562 9.78665 0.0273254 13 0.0273254V8.85186C12.4633 8.5225 12.0134 8.23806 11.5566 7.96525C9.42015 6.69605 6.88247 7.33148 5.71698 9.46567C5.49291 9.87488 5.25669 10.008 4.79292 9.99964C3.23662 9.97302 1.67857 9.98966 0.0249987 9.98966H0.0232617Z" fill="#CE9F2D"/>
<path d="M11.9983 11.5012C11.325 11.964 10.7479 12.4026 10.1326 12.7736C9.47582 13.1706 8.8539 13.0354 8.34973 12.4477C7.8837 11.9051 7.8837 11.099 8.34807 10.5546C8.85058 9.96698 9.47251 9.82829 10.1309 10.2253C10.7462 10.5963 11.3233 11.0348 12 11.4994L11.9983 11.5012Z" fill="#CE9F2D"/>
<path d="M16 11.5028C16.6611 11.0387 17.2204 10.6132 17.8097 10.2419C18.4825 9.8198 19.2104 9.96516 19.6745 10.5606C20.1186 11.1316 20.1069 11.9214 19.6478 12.4766C19.1687 13.0563 18.4608 13.1719 17.773 12.7358C17.207 12.3768 16.6695 11.9705 16 11.5011V11.5028Z" fill="#CE9F2D"/>
</svg>
