<svg width="30" height="30" viewBox="0 0 30 30" fill="none" xmlns="http://www.w3.org/2000/svg">
<path d="M22.1455 14.9841C22.163 17.0362 21.9254 19.0612 21.5212 21.0705C21.4706 21.3237 21.3683 21.4611 21.1005 21.5166C17.0267 22.3639 12.9548 22.3591 8.88196 21.5098C8.6677 21.465 8.54012 21.3734 8.49435 21.1474C7.92462 18.3336 7.70452 15.4993 7.95189 12.6319C8.05804 11.4017 8.24211 10.1862 8.47098 8.97456C8.52649 8.68139 8.63751 8.5353 8.94721 8.47199C12.202 7.80383 15.4772 7.6704 18.7709 8.08824C19.5578 8.18856 20.335 8.35803 21.119 8.48562C21.3664 8.52556 21.4677 8.66094 21.5154 8.89762C21.9196 10.907 22.163 12.9309 22.1455 14.9831V14.9841ZM20.7256 14.0062C20.7226 13.3293 20.2659 12.8101 19.5384 12.6835C18.9005 12.5725 18.2616 12.4624 17.6188 12.3923C17.313 12.3592 17.165 12.2111 17.0462 11.955C16.8085 11.4407 16.5397 10.941 16.3031 10.4268C16.045 9.86576 15.6535 9.49175 15.0088 9.48785C14.367 9.48396 13.9628 9.84044 13.7028 10.4063C13.4593 10.9352 13.1876 11.4514 12.9383 11.9783C12.8263 12.215 12.6831 12.3592 12.3987 12.3923C11.7559 12.4673 11.1171 12.5783 10.4772 12.6777C9.91819 12.7643 9.51305 13.0517 9.33775 13.602C9.16245 14.1513 9.31632 14.6227 9.72146 15.0201C10.15 15.4399 10.5658 15.8733 11.0148 16.2707C11.2797 16.5054 11.345 16.7567 11.2836 17.0879C11.1716 17.6927 11.0869 18.3024 10.9817 18.9092C10.8872 19.4547 11.044 19.9085 11.4842 20.2397C11.9439 20.5864 12.4484 20.5874 12.9509 20.3351C13.5148 20.0517 14.0787 19.7654 14.625 19.4508C14.9007 19.292 15.1266 19.3115 15.3905 19.4605C15.9272 19.7605 16.4745 20.042 17.0218 20.3244C17.5214 20.5816 18.021 20.5913 18.4905 20.2562C18.9433 19.9329 19.1001 19.4771 19.0144 18.9345C18.918 18.3268 18.8313 17.7171 18.7145 17.1132C18.6463 16.7606 18.7193 16.4996 18.9988 16.2551C19.4371 15.8704 19.8383 15.4448 20.2571 15.0396C20.5493 14.7561 20.7217 14.4201 20.7246 14.0071L20.7256 14.0062Z" fill="white"/>
<path d="M20.8025 7.31392C18.7261 6.92335 16.6323 6.74803 14.5199 6.7792C12.7824 6.8055 11.0596 6.96231 9.35528 7.29931C8.95695 7.3782 8.88975 7.31587 9.02026 6.90777C9.54908 5.2627 10.224 3.69459 11.2583 2.29984C11.6069 1.8294 12.0004 1.40085 12.4523 1.02586C14.0904 -0.335769 15.8862 -0.344534 17.5321 1.01515C18.6434 1.93362 19.3787 3.13162 20.0019 4.40657C20.4071 5.23641 20.7265 6.10228 21.0021 6.98276C21.1102 7.32853 21.0995 7.34314 20.8015 7.31392H20.8025Z" fill="white"/>
<path d="M30 14.9344C29.9834 15.9561 29.6065 16.783 28.9979 17.5116C27.8194 18.9219 26.2524 19.7556 24.5929 20.4413C24.0855 20.6507 23.5538 20.8007 23.0415 21.0004C22.6782 21.1416 22.6295 21.0228 22.6948 20.6858C23.1447 18.3852 23.285 16.0613 23.1963 13.7208C23.1408 12.2618 22.986 10.8144 22.7104 9.37974C22.6159 8.88593 22.6217 8.88204 23.1097 9.03398C24.9795 9.61739 26.7511 10.3976 28.2411 11.7037C29.2326 12.5734 29.9523 13.6039 30 14.9344Z" fill="white"/>
<path d="M15.0857 30C14.0495 29.9864 13.2226 29.6085 12.4942 29.0017C11.082 27.8261 10.2493 26.2579 9.56272 24.5983C9.35333 24.0908 9.20432 23.559 9.00662 23.0467C8.87709 22.7117 8.93455 22.6182 9.30658 22.6912C11.6702 23.1577 14.0602 23.2931 16.4638 23.1889C17.8564 23.1285 19.2404 22.9805 20.6097 22.7117C21.1083 22.6143 21.1122 22.6221 20.9651 23.1022C20.4392 24.8174 19.7273 26.442 18.6102 27.8621C17.8019 28.8897 16.8524 29.7253 15.5016 29.9523C15.3428 29.9786 15.1802 29.9893 15.0867 30H15.0857Z" fill="white"/>
<path d="M0 15.0873C0.0126607 14.0354 0.401247 13.1968 1.02454 12.4585C2.19809 11.0686 3.75243 10.2437 5.3954 9.56285C5.9028 9.35247 6.4365 9.20832 6.9478 9.00865C7.27795 8.88009 7.38313 8.92002 7.30814 9.30085C6.85528 11.6004 6.71698 13.9244 6.80366 16.2639C6.8582 17.7385 7.01402 19.2024 7.29938 20.6517C7.36171 20.9692 7.38216 21.1348 6.94488 20.9926C5.21036 20.4257 3.54597 19.7274 2.10557 18.581C1.09564 17.7774 0.275614 16.8366 0.0496689 15.5042C0.0223997 15.3454 0.0116868 15.1828 0.000973899 15.0873H0Z" fill="white"/>
<path d="M11.382 29.5062C5.92813 28.2975 1.48033 23.4694 0.52201 18.6277C1.64784 19.7663 2.93728 20.5611 4.33677 21.1874C5.26977 21.6052 6.22906 21.9529 7.21952 22.2081C7.47955 22.2753 7.68309 22.3591 7.76587 22.6688C8.43884 25.1885 9.45656 27.5329 11.382 29.5052V29.5062Z" fill="white"/>
<path d="M18.6658 0.506729C23.8927 1.62681 28.4515 6.34188 29.4877 11.3628C28.5986 10.4911 27.6441 9.80537 26.5914 9.25605C25.3798 8.62393 24.1128 8.13499 22.7912 7.78825C22.5097 7.71423 22.3159 7.60417 22.2234 7.28762C21.2885 4.09002 20.7246 3.02254 18.6658 0.506729Z" fill="white"/>
<path d="M0.488898 11.3823C1.66147 6.16948 6.12778 1.68233 11.2651 0.510625C11.3245 0.550559 11.2914 0.596336 11.2622 0.625556C9.45949 2.46444 8.48753 4.74454 7.79801 7.17269C7.72107 7.44443 7.6568 7.67721 7.32372 7.76585C4.8023 8.43498 2.46397 9.46253 0.489871 11.3813L0.488898 11.3823Z" fill="white"/>
<path d="M29.4799 18.6979C28.3901 23.8132 23.7427 28.4231 18.6171 29.4945C19.2628 28.8478 19.7877 28.1962 20.2298 27.4813C21.1239 26.0369 21.753 24.4775 22.1932 22.8422C22.2857 22.4974 22.4279 22.3016 22.798 22.1993C25.2308 21.5292 27.5097 20.5533 29.3514 18.7524C29.3806 18.7242 29.4303 18.7183 29.479 18.6979H29.4799Z" fill="white"/>
<path d="M12.0559 18.9569C12.1504 18.3833 12.2526 17.7278 12.3675 17.0733C12.4718 16.4791 12.2994 15.996 11.8485 15.5899C11.416 15.1993 11.008 14.7805 10.5921 14.3704C10.4704 14.2497 10.2883 14.1435 10.373 13.9263C10.4441 13.7432 10.6233 13.7481 10.783 13.7237C11.4073 13.6292 12.0296 13.5192 12.6568 13.4403C13.2061 13.3711 13.583 13.0906 13.8226 12.6017C14.1069 12.0202 14.3972 11.4407 14.6796 10.8583C14.7458 10.7219 14.8091 10.5846 14.9776 10.5729C15.1753 10.5592 15.2474 10.7112 15.3204 10.8631C15.6038 11.4456 15.8931 12.0251 16.1794 12.6056C16.4199 13.0945 16.8007 13.3702 17.349 13.4383C17.9918 13.5182 18.6297 13.6312 19.2705 13.7266C19.4186 13.749 19.5695 13.7685 19.6309 13.9283C19.7049 14.1211 19.5578 14.2273 19.4439 14.3393C19.0047 14.7708 18.5742 15.2129 18.1194 15.6279C17.6977 16.0136 17.5399 16.4704 17.6315 17.0275C17.7357 17.6664 17.835 18.3073 17.9373 18.9472C17.9626 19.106 18.0249 19.2774 17.8506 19.3874C17.686 19.4917 17.5399 19.3894 17.3977 19.3144C16.8387 19.0212 16.2787 18.7281 15.7217 18.431C15.2406 18.1739 14.7653 18.1729 14.2832 18.4329C13.7125 18.7407 13.1418 19.0466 12.5623 19.3368C12.1825 19.5277 12.0286 19.4284 12.0569 18.9569H12.0559Z" fill="white"/>
</svg>
