<svg width="30" height="30" viewBox="0 0 30 30" fill="none" xmlns="http://www.w3.org/2000/svg">
<path d="M17.6507 20.7661C17.9663 21.5284 18.2418 22.1844 18.5106 22.8432C18.651 23.186 18.9212 23.5557 18.5039 23.8689C18.0479 24.2117 17.7684 23.803 17.4822 23.5449C16.5862 22.7383 15.7143 21.9048 14.8009 21.121C14.5736 20.9261 14.2232 20.797 13.9236 20.7823C13.0357 20.7379 12.1423 20.7769 11.2517 20.7634C9.41822 20.7366 8.03811 19.368 8.01404 17.5356C7.99532 16.1039 7.99532 14.6708 8.01404 13.2377C8.03811 11.4054 9.41822 10.0234 11.2517 10.0126C14.0801 9.99513 16.9072 9.99648 19.7356 10.0126C21.6052 10.0234 22.9692 11.4067 22.9879 13.2915C23.0027 14.7017 23.0053 16.112 22.9879 17.5222C22.9639 19.364 21.5958 20.7325 19.765 20.7648C19.099 20.7769 18.4317 20.7661 17.6521 20.7661H17.6507Z" fill="#CE9F2D"/>
<path d="M5.39934 14.9199C5.39934 16.1915 5.40601 17.4644 5.39667 18.7359C5.39133 19.5955 5.00142 19.9878 4.13347 19.9825C3.58066 19.9786 3.01182 19.9878 2.47903 19.868C1.07296 19.5521 0.10887 18.345 0.0581282 16.9273C0.0434399 16.5114 0.106199 16.0862 0.0434399 15.6781C-0.191573 14.1512 0.545514 13.056 1.80604 12.4321C3.00247 11.8397 3.28555 11.0012 3.42843 9.78755C4.01062 4.85527 8.36905 0.700939 13.4405 0.0927954C19.7605 -0.66541 25.3234 3.29147 26.5559 9.44399C26.6934 10.1272 26.5265 10.9486 26.859 11.4935C27.1768 12.0135 27.982 12.228 28.5388 12.6229C29.5149 13.314 30.1291 14.1907 29.9769 15.4636C29.8941 16.1559 29.9916 16.8773 29.8514 17.5552C29.555 18.9808 28.3105 19.9417 26.8403 19.9851C25.0764 20.0378 24.5476 20.0681 24.609 17.8988C24.6677 15.8163 24.629 13.7313 24.6197 11.6475C24.5996 6.63758 20.9035 2.62278 15.8507 2.11599C11.0837 1.63816 6.55571 4.90529 5.62767 9.67698C5.29652 11.3803 5.40201 13.1666 5.30854 14.916C5.33791 14.9173 5.36729 14.9186 5.39667 14.9199H5.39934Z" fill="black"/>
<path d="M27.9987 21.0084C27.5714 25.1964 23.9795 28.6326 19.9324 28.8011C19.688 28.8108 19.4423 28.8261 19.1993 28.8066C18.5878 28.7579 18.0977 28.8609 17.6117 29.3803C16.8266 30.2184 13.6647 30.1822 12.7981 29.4178C12.1104 28.8122 11.8474 28.0325 12.0864 27.1108C12.3174 26.217 13.0224 25.5431 13.8877 25.4902C14.7743 25.4345 15.6742 25.4066 16.5515 25.5139C16.9962 25.5682 17.4007 25.9566 17.832 26.1766C18.1258 26.327 18.4275 26.5442 18.736 26.5636C21.0246 26.714 23.0235 26.0039 24.4669 24.0937C25.0291 23.3502 25.3829 22.416 25.7341 21.5277C25.889 21.1351 26.0211 20.9764 26.4217 21.0028C26.9291 21.0362 27.4405 21.0112 28 21.0112L27.9987 21.0084Z" fill="black"/>
</svg>
