<svg width="30" height="30" viewBox="0 0 30 30" fill="none" xmlns="http://www.w3.org/2000/svg">
<path d="M6.47033 29.8149C4.43629 29.8749 2.40336 29.9327 0.36932 29.9984C0.129106 30.0061 0.0368011 29.9205 0.0445859 29.6792C0.1102 27.6451 0.169142 25.61 0.232532 23.5125C0.590629 23.6871 0.789696 23.9763 1.02991 24.2098C1.61933 24.7814 1.83619 24.7903 2.40781 24.2209C3.16849 23.4636 3.93473 22.7096 4.68206 21.94C4.89336 21.722 5.02237 21.6975 5.24812 21.9311C6.19119 22.8997 7.14649 23.8562 8.11513 24.7981C8.34979 25.0272 8.31865 25.1562 8.1029 25.3653C7.30552 26.1393 6.5226 26.9278 5.74079 27.7163C5.26703 28.1945 5.26592 28.4458 5.75858 28.9241C6.02104 29.1787 6.32242 29.3923 6.60712 29.6247C6.56152 29.6892 6.51592 29.7526 6.46922 29.8171L6.47033 29.8149Z" fill="white"/>
<path d="M0.0979669 6.47382C0.0979669 4.81121 0.0924064 3.1486 0.101303 1.48599C0.103527 1.0278 -0.150033 0.446162 0.136891 0.147003C0.429374 -0.156604 1.01323 0.104743 1.4703 0.101406C3.13624 0.0902853 4.80106 0.096958 6.56375 0.096958C6.40471 0.552925 6.14893 0.713069 5.95431 0.911025C5.19919 1.68061 5.19697 1.78515 5.97322 2.55807C6.66828 3.25091 7.35445 3.95377 8.06175 4.63327C8.3053 4.86681 8.36758 5.0125 8.0851 5.28386C7.12313 6.20802 6.18452 7.15554 5.25369 8.10974C5.03238 8.33661 4.90448 8.33327 4.68651 8.10863C3.9136 7.31013 3.12512 6.52831 2.33552 5.74649C1.85509 5.27051 1.60042 5.26717 1.12555 5.75428C0.869768 6.01674 0.650683 6.3159 0.414917 6.59837C0.309267 6.55723 0.203617 6.51497 0.0979669 6.47382Z" fill="white"/>
<path d="M29.6522 6.58725C29.4019 6.30033 29.1651 5.99894 28.897 5.7287C28.4566 5.28497 28.1719 5.29053 27.7204 5.73649C26.9442 6.50496 26.1635 7.26898 25.4128 8.0608C25.137 8.35218 24.9813 8.31103 24.7233 8.04412C23.8225 7.11328 22.9061 6.1969 21.9753 5.29609C21.7195 5.0492 21.6973 4.90462 21.9675 4.64773C22.7582 3.89483 23.5222 3.11523 24.2918 2.34009C24.77 1.85743 24.7756 1.60165 24.2963 1.13011C24.0338 0.872101 23.738 0.648566 23.4978 0.446162C23.6023 0.174806 23.7313 0.221515 23.8314 0.218178C25.7375 0.161461 27.6437 0.11364 29.5487 0.048025C29.8724 0.0369039 30.0125 0.0936216 29.9991 0.462843C29.928 2.3868 29.8824 4.31187 29.8268 6.23583C29.8245 6.32146 29.8056 6.40709 29.7945 6.49384C29.7467 6.52497 29.7 6.55611 29.6522 6.58725Z" fill="white"/>
<path d="M23.4566 29.6369C23.7502 29.3856 24.0594 29.1498 24.333 28.8796C24.7622 28.4547 24.7611 28.1812 24.3341 27.7474C23.5411 26.9434 22.746 26.1415 21.9341 25.3564C21.7073 25.1373 21.7117 25.0094 21.9353 24.7903C22.9028 23.8461 23.8603 22.892 24.8023 21.9233C25.038 21.6809 25.1659 21.7365 25.3683 21.9444C26.0912 22.6873 26.8296 23.4146 27.5625 24.1486C28.2398 24.827 28.4033 24.8304 29.0872 24.1264C29.2896 23.9184 29.442 23.6638 29.6177 23.4291C29.6955 23.4702 29.7745 23.5114 29.8523 23.5525C29.8523 24.0419 29.8412 24.5312 29.8546 25.0194C29.8946 26.5375 29.9424 28.0555 29.9913 29.5724C29.9991 29.8115 30.0158 30.0117 29.6666 29.9995C27.6348 29.9283 25.603 29.8716 23.5712 29.8093C23.5322 29.7515 23.4944 29.6947 23.4555 29.6369H23.4566Z" fill="white"/>
<path d="M15.0191 14.4099C13.6289 14.4099 12.2399 14.4032 10.8498 14.4154C10.5273 14.4188 10.3949 14.3531 10.4127 13.9828C10.4761 12.685 10.6385 11.4027 10.9265 10.1349C10.9966 9.82461 11.1022 9.67782 11.4648 9.68004C13.8369 9.69895 16.209 9.69895 18.58 9.68004C18.947 9.6767 19.046 9.83018 19.115 10.1382C19.4008 11.406 19.5676 12.6872 19.6276 13.9861C19.6443 14.3587 19.5075 14.4176 19.1884 14.4154C17.7982 14.4032 16.4092 14.4099 15.0191 14.4099Z" fill="white"/>
<path d="M15.0458 15.6332C16.3981 15.6332 17.7515 15.6521 19.1038 15.6221C19.5643 15.6121 19.6454 15.76 19.6232 16.1937C19.5565 17.437 19.3897 18.6604 19.125 19.8759C19.0516 20.2106 18.9481 20.3675 18.5567 20.3641C16.2035 20.343 13.8503 20.3441 11.497 20.3641C11.1156 20.3675 10.9966 20.2273 10.9221 19.8848C10.6463 18.6337 10.4817 17.3714 10.4172 16.0925C10.3972 15.6988 10.5295 15.6254 10.8787 15.6298C12.2688 15.6443 13.6579 15.6354 15.048 15.6354L15.0458 15.6332Z" fill="white"/>
<path d="M6.84622 14.4099C6.18007 14.4099 5.51281 14.4021 4.84665 14.4132C4.56084 14.4176 4.46631 14.3409 4.49968 14.0284C4.64536 12.6894 5.01236 11.4216 5.60845 10.2139C5.78638 9.85353 5.98434 9.65224 6.44586 9.67559C7.40672 9.72453 8.37092 9.69895 9.334 9.6856C9.63315 9.68115 9.78106 9.72453 9.69432 10.0793C9.38515 11.3415 9.22835 12.626 9.20833 13.925C9.20277 14.312 9.05597 14.4343 8.67786 14.4165C8.06842 14.3887 7.45565 14.4087 6.84511 14.4087L6.84622 14.4099Z" fill="white"/>
<path d="M23.1842 14.4099C22.5547 14.4099 21.9252 14.3999 21.2958 14.4143C21.0066 14.421 20.8487 14.3531 20.8421 14.024C20.8154 12.6694 20.6486 11.3315 20.3394 10.0126C20.2804 9.759 20.3627 9.68671 20.6096 9.68783C21.7017 9.69561 22.7949 9.69783 23.887 9.68671C24.1205 9.68449 24.2084 9.81683 24.3007 9.98365C25.0091 11.2659 25.3917 12.6438 25.5507 14.0951C25.5874 14.4277 25.3939 14.4087 25.1837 14.4087C24.5176 14.4087 23.8503 14.4087 23.1842 14.4087V14.4099Z" fill="white"/>
<path d="M6.81619 15.6343C7.46455 15.6343 8.11291 15.6465 8.76015 15.6287C9.06376 15.621 9.19498 15.7188 9.20166 16.0324C9.23168 17.3681 9.38293 18.6893 9.69877 19.9893C9.77773 20.3152 9.64428 20.3608 9.36514 20.3574C8.32866 20.3463 7.29106 20.3452 6.25458 20.3586C5.99768 20.3619 5.85422 20.274 5.733 20.0505C5.0346 18.7638 4.64536 17.387 4.49078 15.9357C4.46075 15.6499 4.61089 15.6332 4.81552 15.6332C5.48167 15.6343 6.14893 15.6332 6.81508 15.6332L6.81619 15.6343Z" fill="white"/>
<path d="M23.2564 15.6332C23.9048 15.6332 24.5532 15.6421 25.2004 15.6298C25.4918 15.6243 25.5752 15.711 25.5418 16.0191C25.395 17.377 25.0191 18.6615 24.4064 19.8826C24.2418 20.2095 24.0583 20.3808 23.649 20.3652C22.6692 20.3274 21.6873 20.3441 20.7053 20.3586C20.3994 20.363 20.2638 20.3085 20.3483 19.9604C20.6552 18.6982 20.8143 17.4137 20.8332 16.1147C20.8387 15.7244 20.9922 15.6109 21.367 15.6265C21.9953 15.6532 22.6259 15.6343 23.2553 15.6343L23.2564 15.6332Z" fill="white"/>
<path d="M15.0202 8.46784C13.9826 8.46784 12.945 8.45783 11.9085 8.4734C11.546 8.47896 11.3947 8.4278 11.5693 8.02188C11.9886 7.04767 12.4446 6.09904 13.1997 5.3339C14.3685 4.14839 15.6708 4.14839 16.8429 5.33612C17.6259 6.12906 18.0952 7.11328 18.51 8.12976C18.6334 8.43336 18.4989 8.47229 18.2431 8.47006C17.1688 8.46339 16.0945 8.46784 15.0202 8.46784Z" fill="white"/>
<path d="M15.0213 21.5763C16.0589 21.5763 17.0965 21.5952 18.133 21.5674C18.5978 21.5552 18.609 21.7064 18.4521 22.0712C18.0396 23.0276 17.5869 23.9585 16.844 24.7091C15.6697 25.8969 14.3718 25.8969 13.2008 24.7091C12.4179 23.9162 11.9474 22.9331 11.5326 21.9166C11.4103 21.6175 11.5382 21.5719 11.7984 21.5741C12.8727 21.5808 13.947 21.5774 15.0213 21.5763Z" fill="white"/>
<path d="M23.3154 8.46673C22.1599 8.46673 21.1501 8.4645 20.1403 8.46895C19.9869 8.46895 19.8968 8.40333 19.8523 8.26766C19.4753 7.12218 18.9392 6.05677 18.2664 5.03474C20.276 5.61193 21.8852 6.76297 23.3165 8.46673H23.3154Z" fill="white"/>
<path d="M23.3109 21.5763C21.8952 23.2812 20.2804 24.4167 18.1875 25.1028C18.5356 24.5145 18.8369 24.0474 19.0938 23.557C19.324 23.1166 19.5731 22.6673 19.6899 22.1913C19.8278 21.6297 20.1348 21.5418 20.6408 21.5652C21.4826 21.6052 22.3278 21.5763 23.312 21.5763H23.3109Z" fill="white"/>
<path d="M11.7662 5.03474C11.1167 6.05789 10.5651 7.11551 10.1937 8.2621C10.1503 8.39666 10.0635 8.46895 9.90896 8.46784C8.89917 8.46339 7.88826 8.46561 6.74057 8.46561C8.13293 6.7663 9.75437 5.63862 11.7662 5.03363V5.03474Z" fill="white"/>
<path d="M6.73723 21.5774C7.8738 21.5774 8.86691 21.5797 9.86002 21.5752C10.028 21.5752 10.1436 21.6219 10.197 21.7887C10.5651 22.9364 11.12 23.9907 11.7795 25.015C9.77217 24.4289 8.15405 23.2879 6.73723 21.5774Z" fill="white"/>
</svg>
