<svg width="31" height="30" viewBox="0 0 31 30" fill="none" xmlns="http://www.w3.org/2000/svg">
<path d="M17.1362 27.7499C16.9945 26.7728 16.544 26.2177 15.6995 26.0408C15.5111 26.0009 15.4869 25.8823 15.4529 25.7374C15.2869 25.0403 14.8491 24.6038 14.154 24.4512C13.9589 24.4084 13.8967 24.3248 13.854 24.143C13.6958 23.4722 13.2919 23.021 12.6075 22.8684C12.3668 22.8149 12.2833 22.6798 12.2192 22.4581C11.8532 21.1826 10.4126 20.7781 9.45445 21.6979C8.82539 22.3016 8.17497 22.8898 7.63133 23.5772C7.50804 23.7337 7.43718 23.7415 7.30321 23.6034C6.77219 23.059 6.22856 22.5272 5.70046 21.9788C5.5063 21.7776 5.36748 21.5267 5.37039 21.2399C5.37913 20.294 4.9714 19.5531 4.26662 18.962C4.00256 18.7404 4.02198 18.5897 4.26468 18.3505C5.60241 17.0332 6.92849 15.7041 8.24486 14.3654C8.47785 14.1282 8.61376 14.1068 8.85839 14.3547C9.61269 15.1179 10.5475 15.4533 11.6183 15.4523C12.2289 15.4523 12.8502 15.3726 13.4434 15.602C13.5337 15.637 13.6288 15.6633 13.7142 15.707C14.0919 15.9015 14.5452 16.1193 14.6413 16.5062C14.7064 16.7658 14.2414 16.9972 14.0132 17.2402C13.6793 17.5932 13.323 17.9237 12.99 18.2766C12.1852 19.1312 12.1833 20.3533 12.9755 21.1612C13.755 21.9555 15.0102 21.9711 15.8587 21.1806C16.2965 20.7723 16.7042 20.3329 17.1333 19.9148C17.5012 19.557 17.7662 19.5531 18.1303 19.9158C19.5175 21.2983 20.897 22.6886 22.2823 24.073C22.5677 24.3588 22.6978 24.6612 22.3949 25.0053C22.1279 25.3087 21.8124 25.2717 21.4309 24.9091C21.3135 24.7973 21.1844 24.6933 21.0902 24.564C20.8193 24.1916 20.6067 24.1877 20.2718 24.5406C19.9748 24.8527 19.9495 25.0326 20.2883 25.2912C20.4796 25.437 20.6485 25.6198 20.7999 25.8074C21.0222 26.0835 21.0281 26.382 20.764 26.6338C20.5184 26.8681 20.2272 26.8594 19.9738 26.6465C19.7389 26.4491 19.5263 26.2245 19.3195 25.997C19.1603 25.822 19.0263 25.7656 18.8555 25.9795C18.7555 26.1049 18.637 26.2196 18.5147 26.3237C18.3536 26.4617 18.3584 26.5745 18.5137 26.7184C18.739 26.9265 18.9555 27.1471 19.1642 27.3717C19.4243 27.6517 19.4505 27.957 19.17 28.2312C18.8875 28.5063 18.5866 28.4606 18.3118 28.1981C18.1245 28.0192 17.9313 27.8452 17.7643 27.6478C17.5702 27.4184 17.3925 27.3348 17.1362 27.746V27.7499Z" fill="white"/>
<path d="M16.2305 11.6519C15.9567 11.7054 16.0383 11.4478 16.0315 11.2728C16.0082 10.6651 15.7354 10.4716 15.1316 10.6447C14.8481 10.7264 14.9539 10.9714 14.9723 11.1269C15.0296 11.613 14.8296 11.6957 14.3986 11.6091C12.026 11.1328 10.0942 9.27971 9.67385 6.67805C9.6389 6.4593 9.68841 6.34263 9.94178 6.35819C10.2155 6.37471 10.4961 6.32999 10.765 6.36888C11.2319 6.43597 11.2387 6.17833 11.2329 5.83124C11.2271 5.49972 11.2533 5.21389 10.7747 5.28583C10.5378 5.3218 10.2883 5.27319 10.0486 5.29652C9.72239 5.32764 9.61657 5.21291 9.68549 4.88819C10.2165 2.39251 11.6872 0.780567 14.154 0.100986C14.2928 0.0630692 14.4433 0.0640414 14.5831 0.0261249C14.8957 -0.0594304 14.9704 0.0679303 14.9694 0.367374C14.9694 0.996399 15.2218 1.16168 15.849 1.01293C16.1285 0.946816 16.0188 0.735845 16.0247 0.585151C16.0499 -0.0419304 16.0421 -0.0419304 16.6275 0.0523748C18.9331 0.424735 21.062 2.65889 21.3212 4.96014C21.3572 5.27805 21.2115 5.29263 20.9679 5.29555C20.3009 5.30138 20.1747 5.49097 20.3009 6.16083C20.3495 6.41555 20.5165 6.35333 20.664 6.35916C21.3785 6.3893 21.394 6.39027 21.2174 7.10291C20.6291 9.47415 19.1234 10.9403 16.7819 11.5673C16.6266 11.6091 16.4625 11.6169 16.2324 11.6519H16.2305ZM16.0286 4.63833C16.0286 3.94806 16.0043 3.4775 16.0354 3.00987C16.0664 2.55487 15.7732 2.61514 15.5024 2.62001C15.2422 2.62487 14.9393 2.53251 14.9549 2.99528C14.9811 3.73903 14.952 4.48472 14.9656 5.22847C14.9704 5.49194 14.8918 5.68347 14.7025 5.86916C13.9171 6.63819 13.1395 7.41596 12.3707 8.20249C11.8678 8.71679 11.8125 8.5204 12.3901 9.14359C12.6124 9.38373 12.7464 9.3604 12.9599 9.13679C13.5861 8.48249 14.1938 7.8029 14.884 7.22152C15.7762 6.46902 16.3363 5.63583 16.0276 4.63833H16.0286Z" fill="white"/>
<path d="M14.387 20.6965C14.0647 20.6799 13.7531 20.5341 13.5725 20.1841C13.3851 19.8205 13.3851 19.4345 13.6686 19.1409C14.7112 18.0579 15.7412 16.9612 16.8702 15.9676C17.2517 15.6322 17.742 15.4805 18.2584 15.464C18.5972 15.4533 18.937 15.4445 19.2768 15.4533C20.399 15.4815 21.3737 15.1325 22.1697 14.3304C22.3425 14.1564 22.46 14.0776 22.6764 14.2964C24.0384 15.6779 25.4101 17.0507 26.7887 18.4156C26.9974 18.6227 26.9653 18.752 26.7663 18.9202C26.0392 19.5356 25.6082 20.294 25.615 21.2759C25.6169 21.5783 25.4461 21.8311 25.2383 22.043C24.7296 22.5631 24.2083 23.0716 23.7016 23.5937C23.5317 23.7687 23.4531 23.7765 23.2589 23.5772C21.7707 22.0479 20.2679 20.5322 18.7496 19.033C18.1138 18.405 17.1741 18.4186 16.5178 19.0281C16.0684 19.4462 15.6412 19.8895 15.2121 20.329C14.9986 20.5477 14.7549 20.6848 14.3879 20.6974L14.387 20.6965Z" fill="white"/>
<path d="M0.148579 4.51972C0.628143 5.01944 1.09897 5.52597 1.58727 6.01694C3.10363 7.54138 4.62095 9.06387 6.1509 10.5747C6.39359 10.8139 6.44407 10.9461 6.16837 11.2164C4.47436 12.8827 2.79589 14.5647 1.13101 16.2593C0.871808 16.5227 0.745607 16.5023 0.485439 16.2632C0.120427 15.9297 -0.0028621 15.5719 5.02297e-05 15.078C0.0223781 11.7608 0.0116996 8.4436 0.0116996 5.12639V4.60236C0.0573261 4.57514 0.102953 4.54694 0.148579 4.51972Z" fill="white"/>
<path d="M30.9183 4.58292C31.0319 4.76083 30.9766 4.95916 30.9776 5.1468C30.9814 8.50096 30.9591 11.8541 30.9999 15.2073C31.0076 15.8237 30.6349 16.094 30.3009 16.4469C30.1621 16.5937 30.0699 16.4508 29.9844 16.3652C28.2332 14.6143 26.4848 12.8614 24.7335 11.1114C24.6034 10.9821 24.5384 10.8878 24.7073 10.7196C26.7498 8.6886 28.7846 6.64888 30.8232 4.61403C30.8426 4.59458 30.8824 4.59458 30.9193 4.58389L30.9183 4.58292Z" fill="white"/>
<path d="M2.69299 18.4127C2.6328 18.3661 2.58523 18.3272 2.53572 18.2912C1.50961 17.529 1.49893 17.3968 2.39593 16.4975C3.90355 14.9876 5.41602 13.4826 6.91296 11.963C7.14012 11.7326 7.26535 11.6889 7.51775 11.9465C8.33223 12.7787 8.34485 12.7671 7.50707 13.6061C6.00043 15.1169 4.49281 16.6268 2.98519 18.1356C2.89491 18.2261 2.79977 18.3106 2.69202 18.4118L2.69299 18.4127Z" fill="white"/>
<path d="M29.3903 17.3054C29.3272 17.388 29.2748 17.4668 29.2137 17.5377C28.6512 18.1768 28.0665 18.193 27.4595 17.5863C25.9625 16.0891 24.4733 14.5832 22.9648 13.0976C22.7094 12.8458 22.6959 12.7155 22.9609 12.4598C23.7783 11.6694 23.7666 11.6568 24.5559 12.4462C26.0751 13.9677 27.5934 15.4893 29.1117 17.0108C29.202 17.1022 29.2894 17.1965 29.3913 17.3044L29.3903 17.3054Z" fill="white"/>
<path d="M11.2213 22.8587C11.2145 23.0609 11.132 23.2135 11.0028 23.3429C10.4912 23.8562 9.98547 24.3734 9.46416 24.877C9.19331 25.1395 8.87684 25.156 8.60599 24.8848C8.33029 24.6087 8.36815 24.2985 8.63123 24.0292C9.14866 23.4994 9.67676 22.9802 10.201 22.4572C10.3951 22.2627 10.633 22.2384 10.8708 22.3356C11.098 22.429 11.2028 22.6283 11.2213 22.8577V22.8587Z" fill="white"/>
<path d="M10.0447 26.0544C10.034 25.8969 10.1078 25.7578 10.2262 25.6392C10.7495 25.1142 11.2669 24.5844 11.7979 24.0681C12.0717 23.8027 12.3862 23.791 12.6502 24.073C12.9124 24.353 12.8764 24.6651 12.6143 24.9334C12.1086 25.4516 11.596 25.964 11.0786 26.4705C10.8805 26.664 10.6466 26.7456 10.3747 26.6105C10.1505 26.4987 10.0359 26.3227 10.0447 26.0534V26.0544Z" fill="white"/>
<path d="M12.2697 28.2739C12.0008 28.272 11.8348 28.168 11.7154 27.9735C11.5785 27.7519 11.5863 27.5195 11.7533 27.3455C12.3202 26.7524 12.8939 26.1642 13.4948 25.6062C13.7162 25.401 14.0161 25.4409 14.2394 25.6597C14.4423 25.858 14.5248 26.1302 14.3375 26.3606C13.7899 27.0353 13.156 27.6303 12.5075 28.2069C12.4435 28.2633 12.326 28.2594 12.2707 28.2739H12.2697Z" fill="white"/>
<path d="M13.2482 29.2705C13.2279 29.076 13.3473 28.9253 13.4861 28.7853C13.9637 28.307 14.4433 27.8296 14.9199 27.3503C15.2082 27.0596 15.5179 26.9644 15.849 27.2696C16.113 27.5127 16.079 27.8812 15.7626 28.2049C15.2781 28.6998 14.7869 29.1869 14.2928 29.671C14.0957 29.8635 13.8647 29.9559 13.5909 29.8256C13.3667 29.7187 13.2434 29.5466 13.2482 29.2705Z" fill="white"/>
<path d="M17.7459 29.4591C17.7313 29.7566 17.5595 29.9734 17.1896 29.9996C16.9527 30.0162 16.1955 29.463 16.278 29.321C16.4644 28.9992 16.7285 28.7134 17.0013 28.4548C17.0838 28.376 17.7381 29.1908 17.7468 29.4591H17.7459Z" fill="white"/>
</svg>
