<svg width="32" height="30" viewBox="0 0 32 30" fill="none" xmlns="http://www.w3.org/2000/svg">
<path d="M15.4662 15.4951C15.3065 15.5086 15.2417 15.4059 15.1633 15.3291C14.7521 14.924 14.3516 14.5065 13.9278 14.1139C13.7343 13.9344 13.7207 13.7664 13.8562 13.5697C14.3264 12.8834 14.3467 12.2048 13.8358 11.5291C13.8262 11.5166 13.8175 11.5012 13.8146 11.4859C13.6801 10.5874 13.1634 10.0557 12.2635 9.88676C12.0497 9.84645 12.0023 9.70055 12.0062 9.49706C12.0178 8.92212 12.0226 8.34621 12.0042 7.77127C11.9965 7.51883 12.0855 7.36813 12.3245 7.32686C13.1624 7.18192 13.6452 6.70104 13.7671 5.86406C13.772 5.83334 13.7836 5.79975 13.8029 5.77575C14.3467 5.05587 14.3245 4.33311 13.8242 3.60267C13.7014 3.42318 13.7662 3.284 13.9132 3.1429C14.3303 2.74265 14.7473 2.34239 15.1421 1.92102C15.322 1.72905 15.4981 1.70698 15.6916 1.83848C16.3873 2.30976 17.0733 2.33088 17.7584 1.82216C17.7835 1.80392 17.8164 1.79048 17.8474 1.78569C18.7085 1.64267 19.2455 1.17427 19.3974 0.298889C19.4342 0.0877232 19.5755 -0.00634143 19.8135 0.000377474C20.393 0.0166948 20.9736 0.0176546 21.5532 0.000377474C21.8134 -0.00730127 21.9528 0.102121 21.9963 0.333443C22.1463 1.13587 22.661 1.48238 23.4138 1.78953C24.2507 2.13027 24.9716 2.36927 25.7669 1.80584C25.9469 1.67914 26.091 1.77321 26.2284 1.91334C26.6222 2.3136 27.0151 2.71577 27.4273 3.09683C27.6314 3.28496 27.6566 3.46829 27.5163 3.68617C27.0915 4.34367 27.0006 4.99444 27.5143 5.65769C27.6082 5.77959 27.673 5.94661 27.6904 6.10018C27.7698 6.81718 28.241 7.12913 28.8834 7.26159C29.2927 7.34606 29.4079 7.5841 29.3808 7.97955C29.3469 8.4566 29.3614 8.93844 29.3769 9.4174C29.3856 9.67176 29.3324 9.85701 29.0528 9.91268C28.2139 10.0787 27.8636 10.6249 27.5472 11.4014C27.2154 12.2134 27.0209 12.893 27.5559 13.6474C27.6759 13.8164 27.6053 13.9671 27.4553 14.1091C27.0373 14.5074 26.6271 14.9144 26.2255 15.33C26.0707 15.4894 25.9304 15.5585 25.7263 15.4203C25.0064 14.9355 24.3533 15.0613 23.558 15.4001C22.751 15.7437 22.1221 16.0739 21.9673 16.9858C21.9383 17.1595 21.8057 17.2363 21.6112 17.2334C20.9987 17.2238 20.3863 17.218 19.7748 17.2353C19.5155 17.243 19.4206 17.0913 19.3829 16.9023C19.2213 16.0797 18.6824 15.7514 17.917 15.4414C17.0898 15.1064 16.3922 14.8799 15.6181 15.4347C15.5678 15.4702 15.5001 15.4826 15.4643 15.497L15.4662 15.4951ZM25.8888 8.64376C25.9004 5.77959 23.6131 3.48077 20.7394 3.46829C17.8251 3.45485 15.4952 5.72776 15.4865 8.59385C15.4778 11.4619 17.8048 13.7837 20.6891 13.7847C23.5589 13.7847 25.8782 11.4926 25.8888 8.64376Z" fill="white"/>
<path d="M8.78128 29.9916C6.07402 29.9916 3.3658 29.9916 0.658551 29.9916C0.00737826 29.9916 -0.0787352 29.8851 0.0518864 29.2593C0.902378 25.1636 4.33627 22.2831 8.55486 22.1248C12.6245 21.9721 16.485 24.8997 17.4013 28.8331C17.5813 29.6061 17.2704 29.9926 16.4686 29.9926C13.9065 29.9926 11.3434 29.9926 8.78128 29.9926V29.9916Z" fill="white"/>
<path d="M8.74741 21.4558C6.2656 21.4462 4.27241 19.4497 4.28402 16.9829C4.29563 14.5266 6.31495 12.5542 8.80546 12.5657C11.2776 12.5772 13.2921 14.5919 13.2785 17.0414C13.265 19.489 11.236 21.4654 8.74644 21.4558H8.74741Z" fill="white"/>
<path d="M31.9942 22.7736C31.9942 24.9486 31.9942 27.1227 31.9942 29.2977C31.9942 29.9628 31.9632 29.9907 31.2782 29.9916C30.5041 29.9916 29.731 29.9936 28.957 29.9916C28.3581 29.9897 28.3019 29.935 28.3019 29.3236C28.301 25.2135 28.3019 21.1044 28.3019 16.9944C28.3019 16.6585 28.3029 16.3225 28.3019 15.9866C28.3019 15.6487 28.4645 15.4961 28.8089 15.499C29.6798 15.5066 30.5506 15.5162 31.4204 15.4951C31.8771 15.4836 32.0019 15.689 32 16.1046C31.9893 18.3276 31.9951 20.5497 31.9951 22.7727L31.9942 22.7736Z" fill="white"/>
<path d="M25.1757 24.6799C25.1757 26.2463 25.1651 27.8118 25.1825 29.3783C25.1873 29.8304 25.0316 30.0128 24.5652 29.9993C23.7118 29.9753 22.8574 29.984 22.004 29.9964C21.6383 30.0012 21.4816 29.8659 21.4825 29.4906C21.4903 26.279 21.4903 23.0664 21.4825 19.8547C21.4825 19.4564 21.6528 19.3182 22.0379 19.3249C22.8594 19.3383 23.6808 19.3278 24.5023 19.3297C25.107 19.3307 25.1738 19.395 25.1748 19.9834C25.1767 21.5498 25.1748 23.1153 25.1748 24.6818L25.1757 24.6799Z" fill="white"/>
<path d="M14.9069 22.9963C15.9306 22.9963 16.9543 22.9905 17.978 23.0021C18.1676 23.004 18.3166 23.1259 18.3166 23.339C18.3196 24.8296 18.3186 26.3202 18.275 27.8234C17.5707 25.9353 16.4396 24.365 14.8518 23.1163C14.8702 23.076 14.8886 23.0357 14.9069 22.9953V22.9963Z" fill="white"/>
<path d="M20.6969 5.15474C20.9987 5.15186 21.2658 5.25456 21.5067 5.42733C22.1453 5.8871 22.7887 6.3411 23.4167 6.81526C23.9692 7.23279 24.1191 7.86629 23.8298 8.43068C23.5338 9.0085 22.9571 9.26958 22.2895 9.08049C22.0263 9.00659 21.9866 9.07185 21.9915 9.3051C22.0021 9.78502 22.0011 10.2649 21.9915 10.7439C21.977 11.4983 21.4148 12.0877 20.7075 12.1021C20.008 12.1155 19.4187 11.5377 19.3877 10.7794C19.3684 10.3005 19.379 9.82053 19.3848 9.34061C19.3877 9.11793 19.3955 8.98643 19.0762 9.08433C18.4299 9.28206 17.8251 8.99411 17.5436 8.4182C17.2697 7.85861 17.4091 7.23567 17.9364 6.83734C18.5895 6.34302 19.262 5.87462 19.9267 5.39566C20.156 5.2296 20.4153 5.15665 20.6969 5.15474Z" fill="white"/>
</svg>
