<svg width="31" height="30" viewBox="0 0 31 30" fill="none" xmlns="http://www.w3.org/2000/svg">
<path d="M3 15.0681C3.84959 15.0681 4.62482 15.1876 5.34497 15.0365C6.17803 14.862 6.95739 14.4348 7.77118 14.1476C7.98736 14.0721 8.30544 14.0075 8.47068 14.1092C10.7275 15.5022 12.9596 15.5022 15.2068 14.0899C15.3514 13.9993 15.6529 14.002 15.7989 14.0941C18.0475 15.5022 20.2809 15.5063 22.5309 14.0995C22.6713 14.0116 22.9481 13.9608 23.0596 14.0377C24.4972 15.0337 26.0738 15.3195 27.7771 15.031C27.817 15.0241 27.8638 15.0543 27.9988 15.0955C27.9988 15.3112 27.9988 15.5558 27.9988 15.7989C27.9988 19.1647 28.0015 22.5304 27.9988 25.8962C27.996 28.4912 26.4938 29.9942 23.8968 29.9969C18.2981 30.001 12.698 30.001 7.09922 29.9969C4.5064 29.9955 3.00551 28.4885 3.00275 25.8907C2.99862 22.5249 3.00275 19.1592 3.00275 15.7934V15.0667L3 15.0681ZM11.931 26.5432C11.9062 27.1573 12.3661 27.4884 13.0876 27.2123C13.4718 27.0653 13.8684 26.9251 14.2154 26.7122C15.0705 26.1874 15.8939 26.1284 16.7545 26.7012C17.0354 26.8881 17.3755 26.9883 17.6908 27.1243C18.6795 27.5488 19.1573 27.2054 19.0389 26.1572C18.97 25.5445 18.8585 24.9318 18.8502 24.3177C18.8461 24.0127 18.9563 23.6501 19.1408 23.4096C19.5842 22.8299 20.1184 22.3202 20.5838 21.7542C21.0286 21.2143 20.862 20.6923 20.1859 20.5C19.6585 20.3502 19.1201 20.2184 18.5776 20.151C17.8409 20.059 17.3094 19.7623 17.0106 19.0451C16.8275 18.6055 16.5438 18.2085 16.2973 17.7964C15.7865 16.9446 15.2192 16.935 14.718 17.773C14.3779 18.3418 14.079 18.938 13.7031 19.482C13.542 19.7142 13.2542 19.9189 12.983 20.0013C12.3716 20.1868 11.7355 20.2898 11.1089 20.4244C10.0748 20.647 9.89308 21.158 10.5733 21.9424C10.8129 22.2186 11.0373 22.5153 11.31 22.7557C12.0136 23.3753 12.3744 24.0718 12.088 25.0403C11.9613 25.4703 11.9874 25.9456 11.931 26.546V26.5432Z" fill="black"/>
<path d="M9 0.0200382C8.77459 1.2659 8.60298 2.48698 8.32521 3.68741C7.74786 6.18877 7.53262 8.71353 7.66496 11.2658C7.69114 11.7683 7.49045 12.0615 7.05707 12.3217C4.2343 14.0205 0.325175 12.352 0.0154115 9.2752C-0.0383971 8.74657 0.0517687 8.16425 0.237918 7.66178C1.00869 5.58993 1.84491 3.54011 2.65494 1.48203C2.96762 0.690463 3.5406 0.0930003 4.42917 0.0434412C5.91691 -0.0391574 7.41337 0.0214149 8.99855 0.0214149L9 0.0200382Z" fill="#CE9F2D"/>
<path d="M22 0.0172412C23.5244 0.0172412 25.0008 -0.0322607 26.4698 0.0364919C27.334 0.0763684 27.9549 0.611264 28.2609 1.36892C29.131 3.52637 30.0025 5.68383 30.8026 7.86466C31.4089 9.52023 30.5782 11.3312 28.8643 12.3363C27.1941 13.3154 24.8259 13.2012 23.5565 12.0599C23.4195 11.9362 23.3044 11.7052 23.3175 11.5333C23.5783 7.83304 22.7535 4.24965 22.0525 0.65114C22.0146 0.454508 22.0189 0.251 22.0015 0.0172412H22Z" fill="#CE9F2D"/>
<path d="M14.9874 0.000795856C14.9874 1.51091 14.9874 2.90169 14.9874 4.29385C14.9874 6.62417 14.9707 8.95311 14.9999 11.2834C15.0054 11.7649 14.825 12.0364 14.4448 12.2806C12.9337 13.2558 10.9438 13.2516 9.49926 12.1942C9.26891 12.0255 9.08852 11.6606 9.06354 11.3712C8.74993 7.63228 9.66578 4.02502 10.311 0.388954C10.3374 0.243566 10.5483 0.0213696 10.6774 0.0186264C12.0803 -0.00880522 13.4846 0.00216744 14.986 0.00216744L14.9874 0.000795856Z" fill="#CE9F2D"/>
<path d="M17.076 0.00330506C18.238 0.00330506 19.3735 -0.0117794 20.5078 0.0225035C20.6444 0.0266174 20.8712 0.26934 20.8955 0.433898C21.4303 4.02263 22.1757 7.58257 21.9627 11.2796C21.9361 11.7418 21.8354 12.0339 21.5125 12.2834C20.2323 13.2694 18.5367 13.2447 17.3352 12.1669C17.1767 12.0243 17.0123 11.7404 17.0111 11.521C16.9938 7.77592 17.0007 4.03086 17.0054 0.285796C17.0054 0.222716 17.0366 0.159635 17.076 0.00467638V0.00330506Z" fill="#CE9F2D"/>
</svg>
