<svg width="81" height="47" viewBox="0 0 81 47" fill="none" xmlns="http://www.w3.org/2000/svg">
<path d="M40.8108 39.9911C40.6824 38.5545 40.6762 37.3021 40.4413 36.0903C39.3607 30.4968 34.5501 26.546 28.875 26.6772C27.5345 26.7084 26.4728 26.6678 25.8088 25.3123C25.5959 24.8782 25.0885 24.5909 24.6281 24.1537C26.1878 22.7826 27.3372 21.2616 27.3122 19.0942C27.2902 16.9892 26.2191 15.4869 24.9444 14.4188C25.7556 12.9009 26.8486 11.5986 27.1618 10.1276C27.9386 6.48912 25.2106 3.42219 21.3302 3.30663C18.8873 3.2348 16.4412 3.29414 14.0014 3.29414C13.9607 0.936164 14.7875 0.014835 16.9611 0.0117118C28.33 -0.00390394 39.699 -0.00390394 51.0679 0.0117118C53.4231 0.0117118 54.369 1.18914 53.871 3.52838C51.4657 14.856 49.0353 26.1806 46.6018 37.502C46.2166 39.2884 45.396 39.9381 43.545 39.988C42.6649 40.013 41.7849 39.9911 40.8077 39.9911H40.8108Z" fill="black"/>
<path d="M78.0699 38.979C76.8713 31.0525 72.3828 26.5369 65.5854 26.6652C58.8195 26.7935 54.6874 31.5281 54.0913 39.8239C51.0096 40.5186 49.505 39.1323 50.1453 36.125C51.8139 28.2799 53.5077 20.4379 55.1984 12.5991C55.6274 10.612 56.3876 9.9611 58.4725 10.0018C61.775 10.0644 65.1406 9.84531 68.3643 10.4055C75.2595 11.604 80.3757 17.5058 80.9718 24.409C81.0475 25.2758 80.9655 26.1833 80.7889 27.0376C80.0728 30.5581 79.2969 34.0691 78.5241 37.5802C78.42 38.0558 78.2213 38.5127 78.0667 38.979H78.0699Z" fill="#CE9F2D"/>
<path d="M66.0707 31C71.0367 31.027 75.0566 34.6514 74.9994 39.048C74.9422 43.4507 70.8616 47.0269 65.9293 46.9998C61.0172 46.9728 56.9434 43.2884 57.0006 38.9248C57.0578 34.4981 61.0912 30.973 66.0707 31.003V31Z" fill="black"/>
<path d="M29.0871 31.0002C33.5438 31.0332 37.0358 34.5884 36.9997 39.0601C36.9637 43.4927 33.3725 47.0328 28.9399 46.9998C24.5463 46.9697 20.9701 43.3214 21.0002 38.9128C21.0332 34.5012 24.6425 30.9701 29.0871 31.0002Z" fill="black"/>
<path d="M11.9165 31.9967C9.02428 31.9967 6.13205 32.0017 3.23982 31.9967C1.2024 31.9917 0.0294449 31.2737 0.000522639 30.0348C-0.0283997 28.7809 1.14456 28.0081 3.14984 28.0056C9.04035 27.9981 14.9309 27.9981 20.8214 28.0056C22.7913 28.0056 24.0253 28.8058 23.9996 30.0273C23.9771 31.2413 22.7527 31.9917 20.7507 31.9967C17.8038 32.0042 14.8602 31.9967 11.9133 31.9967H11.9165Z" fill="#CE9F2D"/>
<path d="M13.5053 21.9922C10.9917 21.9922 8.48144 22.0108 5.96786 21.986C4.13771 21.9704 3.03371 21.0405 3.00085 19.5601C2.96471 18.005 4.08514 17.0191 5.99743 17.0129C10.9655 16.9942 15.9368 16.9973 20.9048 17.0129C22.7777 17.0191 24.0098 18.0423 23.9999 19.5165C23.9901 20.9845 22.7612 21.9766 20.8752 21.9922C18.4175 22.0077 15.9598 21.9953 13.502 21.9953L13.5053 21.9922Z" fill="#CE9F2D"/>
<path d="M15.5015 7.00698C17.4084 7.00698 19.3154 6.9871 21.2223 7.01443C22.83 7.03679 23.9506 7.84179 23.9984 8.93997C24.0493 10.0779 22.8873 10.9723 21.216 10.9823C17.4021 11.0071 13.5882 11.0046 9.7743 10.9823C8.16979 10.9723 7.046 10.1524 7.00143 9.05675C6.95368 7.91385 8.10612 7.03928 9.78385 7.01443C11.6908 6.9871 13.5977 7.00698 15.5047 7.00698H15.5015Z" fill="#CE9F2D"/>
<path d="M17 36.0008C16.8741 37.3683 16.7601 38.6005 16.6342 39.9529C14.1604 39.9529 11.6266 40.0832 9.12286 39.9104C7.25178 39.7826 6.32823 37.3908 7.56063 36.2287C7.70156 36.096 7.98942 36.0133 8.21131 36.0108C11.1439 35.9958 14.0734 36.0008 17 36.0008Z" fill="#CE9F2D"/>
</svg>
