<svg width="25" height="30" viewBox="0 0 25 30" fill="none" xmlns="http://www.w3.org/2000/svg">
<path d="M12.526 12.1909C16.13 12.1909 19.7349 12.1909 23.339 12.1909C24.4895 12.1909 24.9979 12.7081 24.9987 13.8831C25.0004 16.1975 25.0004 18.5118 24.9987 20.8261C24.9979 21.9875 24.4811 22.5005 23.3204 22.5005C21.8618 22.5005 20.4032 22.509 18.9446 22.4945C18.6332 22.4911 18.4977 22.5491 18.5103 22.9052C18.5381 23.6713 18.512 24.4382 18.5212 25.2051C18.5296 25.891 18.8882 26.2395 19.5716 26.2497C19.6137 26.2497 19.6558 26.2455 19.6979 26.2497C20.1431 26.2992 20.4234 26.2276 20.6279 25.6993C21.0336 24.6503 22.2153 24.1715 23.3314 24.4697C24.338 24.7381 25.045 25.7538 24.9903 26.853C24.9348 27.9684 24.1175 28.8614 22.9888 29.0404C21.9586 29.204 20.8897 28.5658 20.5295 27.533C20.431 27.251 20.3022 27.1504 20.0211 27.1828C19.8275 27.205 19.6289 27.1913 19.4328 27.1854C18.4017 27.1513 17.6316 26.3929 17.6013 25.3457C17.5777 24.5225 17.5828 23.6985 17.5996 22.8754C17.6055 22.5789 17.5171 22.4903 17.2225 22.4937C15.9188 22.509 14.6142 22.509 13.3096 22.4937C13.0243 22.4903 12.9544 22.59 12.9594 22.8584C12.9738 23.5818 12.9721 24.3069 12.9594 25.0304C12.9552 25.2664 13.0327 25.3644 13.2582 25.4496C14.36 25.862 14.9458 26.8777 14.7834 28.0375C14.6394 29.0625 13.7422 29.8993 12.6859 29.9913C11.5968 30.0868 10.6078 29.3855 10.2711 28.2778C9.92774 27.1496 10.5523 25.9021 11.7121 25.465C11.9738 25.3661 12.0488 25.246 12.0429 24.981C12.0269 24.2575 12.0294 23.5324 12.0412 22.8089C12.0454 22.5669 11.9637 22.4945 11.7272 22.4962C10.3949 22.5056 9.0625 22.5082 7.73013 22.4945C7.45912 22.492 7.40104 22.5925 7.40441 22.8405C7.41619 23.5929 7.41114 24.3453 7.40693 25.0977C7.4002 26.4321 6.65953 27.1837 5.35157 27.1871C5.23962 27.1871 5.12432 27.2024 5.01574 27.1845C4.69422 27.13 4.56208 27.2731 4.4535 27.579C4.08485 28.6143 2.973 29.2287 1.92343 29.0208C0.781283 28.7941 0.00610213 27.8628 0.0069438 26.7176C0.0069438 25.5587 0.805691 24.6154 1.96552 24.4049C2.99488 24.2183 4.09242 24.8395 4.45434 25.8578C4.56292 26.1645 4.69506 26.3017 5.01658 26.254C5.18155 26.2293 5.35241 26.2549 5.52074 26.248C6.09729 26.225 6.46594 25.868 6.47688 25.2826C6.49203 24.4595 6.47099 23.6355 6.48782 22.8124C6.49372 22.5243 6.36578 22.4954 6.13348 22.4962C4.63278 22.5039 3.13208 22.5013 1.63137 22.4996C0.532989 22.4988 0.00357711 21.9679 0.00189376 20.8602C-0.000631255 18.5177 -0.000631255 16.1745 0.00189376 13.832C0.00273544 12.7217 0.531306 12.19 1.62801 12.19C5.26067 12.19 8.89248 12.19 12.5251 12.19L12.526 12.1909ZM14.8111 17.3342C14.8111 17.1637 14.8179 16.9933 14.8103 16.8238C14.7598 15.6751 13.9501 14.7276 12.8879 14.5674C11.7146 14.391 10.6777 15.0352 10.3031 16.1813C10.1045 16.7897 10.1718 17.4194 10.2097 18.038C10.2737 19.0776 11.1153 19.9748 12.1152 20.1248C13.2195 20.291 14.2581 19.6902 14.6537 18.6745C14.8238 18.2383 14.817 17.7875 14.812 17.3342H14.8111ZM16.2049 17.3342C16.2049 18.0721 16.2066 18.81 16.2041 19.5471C16.2033 19.8658 16.2933 20.1325 16.6535 20.1402C17.0407 20.1487 17.1367 19.87 17.1316 19.5343C17.1299 19.421 17.1316 19.3076 17.1316 19.1935C17.1316 18.6044 17.4282 18.3005 18.0213 18.2817C18.0777 18.28 18.1332 18.2775 18.1888 18.2732C19.1617 18.1965 19.9075 17.3879 19.9075 16.4088C19.9075 15.4289 19.1617 14.61 18.1896 14.5478C17.7427 14.5197 17.2932 14.5316 16.8446 14.5367C16.3362 14.5418 16.2091 14.6773 16.2066 15.2065C16.2033 15.9154 16.2066 16.6252 16.2066 17.3342H16.2049ZM6.46005 20.1538V20.1478C6.74033 20.1478 7.02229 20.1657 7.30088 20.1444C8.32772 20.066 9.00106 19.0852 8.72836 18.0789C8.51121 17.2762 7.92035 16.8919 6.88257 16.8766C6.34137 16.8689 6.01565 16.5971 6.02406 16.1608C6.03248 15.7365 6.34053 15.48 6.86405 15.4723C7.35475 15.4647 7.84544 15.4749 8.33614 15.4612C8.61726 15.4536 8.78559 15.2806 8.78643 15.002C8.78643 14.7225 8.61726 14.5461 8.33698 14.5435C7.70657 14.5384 7.0711 14.5069 6.44658 14.5708C5.56956 14.6603 4.95177 15.5942 5.12263 16.4684C5.27161 17.2319 5.94326 17.8983 7.03155 17.8216C7.54581 17.7858 7.86312 18.084 7.86817 18.5075C7.87322 18.9344 7.56432 19.2088 7.04922 19.2173C6.55853 19.2258 6.06783 19.2173 5.57713 19.2258C5.2977 19.2301 5.11674 19.3877 5.10664 19.6672C5.0957 19.9697 5.27834 20.1393 5.57713 20.1504C5.87088 20.1615 6.16546 20.1529 6.46005 20.1529V20.1538Z" fill="white"/>
<path d="M20.8493 11.2536C20.0362 11.2536 19.2223 11.2442 18.4093 11.2587C18.1509 11.2629 18.06 11.205 18.0389 10.917C17.858 8.45098 16.3245 6.54226 13.9829 5.83331C10.8687 4.89088 7.43807 7.13788 7.0206 10.3938C6.9471 10.967 6.62782 11.2536 6.06278 11.2536C4.63278 11.2536 3.20193 11.2425 1.77193 11.2621C1.44536 11.2663 1.35362 11.1649 1.38729 10.8556C1.4117 10.6315 1.38729 10.4014 1.39402 10.1748C1.42348 9.24003 2.06315 8.51659 2.98815 8.45779C3.5748 8.42115 3.81131 8.0752 3.99479 7.59461C4.16144 7.15833 4.13872 6.79363 3.81804 6.41785C3.21288 5.7089 3.25496 4.74347 3.89631 4.06519C4.38028 3.55222 4.87686 3.05034 5.38271 2.55952C6.05941 1.9017 7.02734 1.8608 7.74613 2.48113C8.12235 2.80578 8.4868 2.80067 8.91353 2.63025C9.37476 2.44619 9.70302 2.20931 9.74005 1.63755C9.79897 0.678075 10.5152 0.0245103 11.463 0.00832028C12.1498 -0.00360919 12.8374 -0.00190498 13.5242 0.00832028C14.4778 0.021954 15.2033 0.666998 15.2623 1.6205C15.2993 2.21442 15.6402 2.45301 16.1149 2.64047C16.5458 2.81004 16.9061 2.78618 17.2781 2.46323C17.9725 1.86165 18.9463 1.90681 19.6095 2.54674C20.117 3.03585 20.6119 3.53859 21.0967 4.05156C21.7566 4.74943 21.7928 5.70209 21.1683 6.43745C20.8459 6.81749 20.8518 7.18645 21.0201 7.61847C21.202 8.08542 21.4342 8.41945 21.9999 8.45609C22.9476 8.51829 23.5847 9.24003 23.6117 10.2012C23.6313 10.9028 23.2997 11.2536 22.6168 11.2536C22.0276 11.2536 21.4393 11.2536 20.8501 11.2536H20.8493Z" fill="white"/>
<path d="M12.4544 11.2536C11.0396 11.2536 9.62558 11.2459 8.21073 11.2595C7.92877 11.2621 7.85807 11.1786 7.87743 10.8999C8.03987 8.57027 9.98498 6.65815 12.2954 6.57038C14.6706 6.48006 16.7108 8.17575 17.0634 10.5318C17.1353 11.013 16.9293 11.2536 16.4457 11.2536C15.115 11.2536 13.7843 11.2536 12.4544 11.2536Z" fill="white"/>
<path d="M13.8769 17.2924C13.9417 18.1104 13.7978 18.7563 13.0478 19.0972C12.2171 19.4747 11.2298 18.9199 11.1364 18.0014C11.0935 17.5813 11.0993 17.1518 11.1305 16.73C11.1844 16.0049 11.8021 15.4664 12.5226 15.4766C13.2246 15.486 13.8079 16.0211 13.8743 16.7309C13.8937 16.9414 13.8777 17.1552 13.8777 17.2924H13.8769Z" fill="white"/>
<path d="M17.1308 16.4003C17.1308 16.3432 17.1224 16.2852 17.1325 16.2307C17.1788 15.9827 16.9877 15.6555 17.252 15.4945C17.5802 15.2951 18.5086 15.5183 18.7451 15.7961C19.0094 16.108 19.0574 16.4591 18.8781 16.8238C18.7401 17.1041 18.5103 17.2796 18.1947 17.3299C17.1905 17.4884 17.1316 17.4381 17.1316 16.3994L17.1308 16.4003Z" fill="white"/>
</svg>
