<svg width="18" height="14" viewBox="0 0 18 14" fill="none" xmlns="http://www.w3.org/2000/svg">
<path d="M15.8114 0.273273C15.8114 0.273273 13.6391 0 8.97382 0C4.45991 0 2.18782 0.273273 2.18782 0.273273C1.6075 0.27349 1.05102 0.504174 0.640748 0.914599C0.230476 1.32502 1.12453e-07 1.88159 1.53003e-07 2.46191V10.6715C-0.000107312 10.959 0.056397 11.2436 0.166287 11.5092C0.276177 11.7747 0.4373 12.0161 0.640458 12.2194C0.843616 12.4227 1.08483 12.584 1.35033 12.6941C1.61582 12.8042 1.9004 12.8609 2.18782 12.861C2.18782 12.861 4.30036 13.1326 8.97382 13.1326C13.6448 13.1326 15.8114 12.861 15.8114 12.861C16.0989 12.8612 16.3837 12.8047 16.6494 12.6948C16.915 12.5848 17.1564 12.4235 17.3597 12.2202C17.563 12.0168 17.7242 11.7753 17.8341 11.5096C17.9439 11.2439 18.0003 10.9591 18 10.6715V2.46027C18 2.17293 17.9434 1.88841 17.8334 1.62297C17.7234 1.35752 17.5621 1.11635 17.3589 0.913251C17.1556 0.710148 16.9143 0.549089 16.6488 0.439279C16.3833 0.329468 16.0987 0.273058 15.8114 0.273273ZM6.59536 9.81818V3.31773L12.4323 6.56591L6.59536 9.81818Z" fill="white"/>
</svg>
